<svg width="69" height="54" viewBox="0 0 69 54" fill="none" xmlns="http://www.w3.org/2000/svg">
<path d="M36.8978 45.9525C33.2498 50.7045 28.1378 53.0805 21.5618 53.0805C14.9858 53.0805 9.84984 50.7045 6.15384 45.9525C2.50584 41.1525 0.681836 34.7685 0.681836 26.8005C0.681836 18.8325 2.50584 12.4725 6.15384 7.72049C9.84984 2.92049 14.9858 0.520486 21.5618 0.520486C28.1378 0.520486 33.2498 2.92049 36.8978 7.72049C40.5938 12.4725 42.4418 18.8325 42.4418 26.8005C42.4418 34.7685 40.5938 41.1525 36.8978 45.9525ZM13.5698 26.8005C13.5698 35.9685 16.2338 40.5525 21.5618 40.5525C26.8898 40.5525 29.5538 35.9685 29.5538 26.8005C29.5538 17.6325 26.8898 13.0485 21.5618 13.0485C16.2338 13.0485 13.5698 17.6325 13.5698 26.8005ZM57.2187 1.60048H68.3067V52.0005H55.4187V15.1365L46.6347 17.3685L43.5387 6.49649L57.2187 1.60048Z" fill="#D33A2F"/>
</svg>
