<svg width="80" height="54" viewBox="0 0 80 54" fill="none" xmlns="http://www.w3.org/2000/svg">
<path d="M36.8978 45.9525C33.2498 50.7045 28.1378 53.0805 21.5618 53.0805C14.9858 53.0805 9.84984 50.7045 6.15384 45.9525C2.50584 41.1525 0.681836 34.7685 0.681836 26.8005C0.681836 18.8325 2.50584 12.4725 6.15384 7.72049C9.84984 2.92049 14.9858 0.520486 21.5618 0.520486C28.1378 0.520486 33.2498 2.92049 36.8978 7.72049C40.5938 12.4725 42.4418 18.8325 42.4418 26.8005C42.4418 34.7685 40.5938 41.1525 36.8978 45.9525ZM13.5698 26.8005C13.5698 35.9685 16.2338 40.5525 21.5618 40.5525C26.8898 40.5525 29.5538 35.9685 29.5538 26.8005C29.5538 17.6325 26.8898 13.0485 21.5618 13.0485C16.2338 13.0485 13.5698 17.6325 13.5698 26.8005ZM44.6907 52.0005V42.6405L61.3947 25.0005C63.0747 23.1765 64.2987 21.7125 65.0667 20.6085C65.8347 19.4565 66.2187 18.3285 66.2187 17.2245C66.2187 15.9765 65.8107 14.9685 64.9947 14.2005C64.2267 13.4325 63.1467 13.0485 61.7547 13.0485C58.7787 13.0485 56.5227 14.8005 54.9867 18.3045L43.8987 12.1125C45.5307 8.32049 47.9307 5.44049 51.0987 3.47249C54.2667 1.50449 57.7707 0.520486 61.6107 0.520486C66.4107 0.520486 70.5147 1.96049 73.9227 4.84049C77.3787 7.67249 79.1067 11.5605 79.1067 16.5045C79.1067 19.4325 78.4107 22.1445 77.0187 24.6405C75.6747 27.0885 73.6827 29.6805 71.0427 32.4165L64.2027 39.5445H79.9707V52.0005H44.6907Z" fill="#D33A2F"/>
</svg>
