<svg width="81" height="54" viewBox="0 0 81 54" fill="none" xmlns="http://www.w3.org/2000/svg">
<path d="M37.056 45.9525C33.408 50.7045 28.296 53.0805 21.72 53.0805C15.144 53.0805 10.008 50.7045 6.31204 45.9525C2.66404 41.1525 0.840039 34.7685 0.840039 26.8005C0.840039 18.8325 2.66404 12.4725 6.31204 7.72049C10.008 2.92049 15.144 0.520486 21.72 0.520486C28.296 0.520486 33.408 2.92049 37.056 7.72049C40.752 12.4725 42.6 18.8325 42.6 26.8005C42.6 34.7685 40.752 41.1525 37.056 45.9525ZM13.728 26.8005C13.728 35.9685 16.392 40.5525 21.72 40.5525C27.048 40.5525 29.712 35.9685 29.712 26.8005C29.712 17.6325 27.048 13.0485 21.72 13.0485C16.392 13.0485 13.728 17.6325 13.728 26.8005ZM69.4195 22.1205C72.6355 23.1285 75.2275 24.8565 77.1955 27.3045C79.1635 29.7525 80.1475 32.7045 80.1475 36.1605C80.1475 41.5845 78.3715 45.7605 74.8195 48.6885C71.2675 51.6165 66.8755 53.0805 61.6435 53.0805C57.4675 53.0805 53.7475 52.1205 50.4835 50.2005C47.2675 48.2805 44.9395 45.4485 43.4995 41.7045L54.7315 35.2965C55.7875 38.8005 58.0915 40.5525 61.6435 40.5525C63.4675 40.5525 64.8595 40.1205 65.8195 39.2565C66.8275 38.3925 67.3315 37.2405 67.3315 35.8005C67.3315 34.3605 66.8275 33.2325 65.8195 32.4165C64.8595 31.5525 63.4675 31.1205 61.6435 31.1205H58.9075L53.9395 23.7765L62.0035 13.9125H45.0835V1.60048H77.8435V11.7525L69.4195 22.1205Z" fill="#D33A2F"/>
</svg>
