<svg width="86" height="54" viewBox="0 0 86 54" fill="none" xmlns="http://www.w3.org/2000/svg">
<path d="M36.6967 45.9525C33.0487 50.7045 27.9367 53.0805 21.3607 53.0805C14.7847 53.0805 9.64866 50.7045 5.95266 45.9525C2.30466 41.1525 0.480664 34.7685 0.480664 26.8005C0.480664 18.8325 2.30466 12.4725 5.95266 7.72049C9.64866 2.92049 14.7847 0.520486 21.3607 0.520486C27.9367 0.520486 33.0487 2.92049 36.6967 7.72049C40.3927 12.4725 42.2407 18.8325 42.2407 26.8005C42.2407 34.7685 40.3927 41.1525 36.6967 45.9525ZM13.3687 26.8005C13.3687 35.9685 16.0327 40.5525 21.3607 40.5525C26.6887 40.5525 29.3527 35.9685 29.3527 26.8005C29.3527 17.6325 26.6887 13.0485 21.3607 13.0485C16.0327 13.0485 13.3687 17.6325 13.3687 26.8005ZM85.4238 32.5605V44.2965H80.3838V52.0005H67.5678V44.2965H45.4638V32.5605L60.5118 1.60048H74.7678L59.5758 32.5605H67.5678V23.4885H80.3838V32.5605H85.4238Z" fill="#D33A2F"/>
</svg>
