<svg width="82" height="54" viewBox="0 0 82 54" fill="none" xmlns="http://www.w3.org/2000/svg">
<path d="M36.4389 45.953C32.7909 50.705 27.6789 53.081 21.1029 53.081C14.5269 53.081 9.39085 50.705 5.69485 45.953C2.04685 41.153 0.222852 34.769 0.222852 26.801C0.222852 18.833 2.04685 12.473 5.69485 7.72098C9.39085 2.92097 14.5269 0.520974 21.1029 0.520974C27.6789 0.520974 32.7909 2.92097 36.4389 7.72098C40.1349 12.473 41.9829 18.833 41.9829 26.801C41.9829 34.769 40.1349 41.153 36.4389 45.953ZM13.1109 26.801C13.1109 35.969 15.7749 40.553 21.1029 40.553C26.4309 40.553 29.0949 35.969 29.0949 26.801C29.0949 17.633 26.4309 13.049 21.1029 13.049C15.7749 13.049 13.1109 17.633 13.1109 26.801ZM64.3029 19.313C69.2469 19.313 73.3509 20.753 76.6149 23.633C79.9269 26.513 81.5829 30.593 81.5829 35.873C81.5829 41.345 79.8069 45.593 76.2549 48.617C72.7029 51.593 68.2869 53.081 63.0069 53.081C58.5909 53.081 54.7509 52.145 51.4869 50.273C48.2229 48.353 45.8469 45.497 44.3589 41.705L55.5909 35.297C56.6469 38.801 59.1189 40.553 63.0069 40.553C64.8309 40.553 66.2229 40.145 67.1829 39.329C68.1909 38.465 68.6949 37.313 68.6949 35.873C68.6949 34.385 68.1909 33.233 67.1829 32.417C66.2229 31.601 64.9029 31.193 63.2229 31.193H47.0949L49.1829 1.60097H78.8469V13.913H61.0629L60.7029 19.313H64.3029Z" fill="#D33A2F"/>
</svg>
