<svg width="43" height="45" viewBox="0 0 43 45" fill="none" xmlns="http://www.w3.org/2000/svg">
<path d="M9.34772 13.5508V24.5107H0.738037V16.622C0.738037 14.9262 2.11335 13.5508 3.80929 13.5508H5.37928H9.34772Z" fill="#BED8FB"/>
<path d="M42.2621 17.273V41.3892C42.2621 43.3839 40.6459 45.0001 38.6522 45.0001H8.99015C7.28612 45.0001 5.85825 43.8194 5.47883 42.2313L5.46433 40.1669L5.38013 27.8729V3.6109C5.38021 1.61622 6.99644 0 8.99015 0H24.9891C26.4269 0 31.0836 3.97028 35.1997 8.15159C38.9555 11.968 42.2621 15.9601 42.2621 17.273Z" fill="#DDEAFB"/>
<path d="M42.2621 17.2731V26.1075C42.2621 26.0975 42.2613 26.0875 42.2613 26.0767C41.9896 15.2369 33.1598 14.7353 30.2725 11.8478L35.1998 8.15186C38.9555 11.9682 42.2621 15.9602 42.2621 17.2731Z" fill="#CBE2FF"/>
<path d="M24.9886 0H16.1543C16.1642 0 16.1742 0.000878906 16.1851 0.000878906C27.0249 0.272549 27.5265 9.1023 30.4139 11.9897L34.1099 7.06236C30.2935 3.30662 26.3015 0 24.9886 0Z" fill="#CBE2FF"/>
<path d="M42.262 17.2734V18.8007C42.262 15.5851 39.6544 12.9777 36.4389 12.9777H32.8948C30.9011 12.9777 29.2842 11.3607 29.2842 9.36703V5.82302C29.2842 2.60745 26.6767 0 23.4612 0H24.9885C27.7386 0 30.3769 1.09274 32.3214 3.03724L39.2246 9.94043C41.1692 11.885 42.262 14.5233 42.262 17.2734Z" fill="#BED8FB"/>
<path d="M29.8238 27.3262V35.4243C29.8238 38.0437 27.7006 40.167 25.0812 40.167H5.46408L5.37988 27.873V22.5835H25.0812C27.7006 22.5835 29.8238 24.7067 29.8238 27.3262Z" fill="#CBE2FF"/>
<path d="M32.8949 24.4359V32.5341C32.8949 35.1535 30.7716 37.2767 28.1522 37.2767H3.80969C3.71828 37.2767 3.62863 37.2731 3.53898 37.2641C1.96987 37.1283 0.738525 35.8109 0.738525 34.2055V16.6221C0.738525 17.4696 1.08262 18.2373 1.63853 18.7933C2.13379 19.2895 2.79842 19.6173 3.53898 19.6807C3.62863 19.6897 3.71828 19.6933 3.80969 19.6933H28.1522C30.7717 19.6932 32.8949 21.8165 32.8949 24.4359Z" fill="#78D0B1"/>
<path d="M3.53899 19.6806V37.2641C1.96987 37.1283 0.738525 35.8109 0.738525 34.2055V16.6221C0.738525 17.4696 1.08262 18.2373 1.63853 18.7933C2.13379 19.2895 2.79833 19.6172 3.53899 19.6806Z" fill="#61AAB7"/>
<path d="M19.3397 32.1065C18.642 32.1105 17.6443 32.1142 16.9977 32.1137V24.1546C16.9977 23.7796 16.6937 23.4756 16.3187 23.4756C15.9437 23.4756 15.6396 23.7796 15.6396 24.1546V32.7856C15.6396 33.1164 15.878 33.3991 16.2041 33.4549C16.2526 33.4632 16.3055 33.4723 17.2409 33.4723C17.6981 33.4723 18.3661 33.4701 19.3474 33.4646C19.7224 33.4625 20.0248 33.1567 20.0227 32.7817C20.0205 32.4068 19.7165 32.1017 19.3397 32.1065Z" fill="#475959"/>
<path d="M25.9855 27.9048C24.8584 27.4891 23.8142 27.0349 23.5685 26.9268C23.2592 26.7049 23.1085 26.3468 23.1641 25.9596C23.2325 25.4836 23.5943 25.1027 24.1322 24.9407C25.5681 24.5083 26.8562 25.5455 26.8795 25.5645C27.1666 25.8039 27.5934 25.7662 27.8341 25.4799C28.0753 25.1928 28.0383 24.7644 27.7512 24.5231C27.6764 24.4602 25.8952 22.9911 23.7405 23.6403C22.699 23.9541 21.963 24.7688 21.8197 25.7666C21.6867 26.6931 22.0878 27.5841 22.8666 28.0919C22.8965 28.1114 22.928 28.1286 22.9607 28.1432C23.0102 28.1653 24.188 28.6895 25.5153 29.1792C26.5159 29.5482 27.0219 30.1395 26.9037 30.8015C26.7901 31.4378 26.0844 32.114 25.0003 32.114C24.0305 32.114 23.0933 31.7188 22.4933 31.0566C22.2414 30.7786 21.8118 30.7577 21.5341 31.0094C21.2562 31.2612 21.2351 31.6907 21.4869 31.9686C22.3402 32.91 23.6535 33.4721 25.0003 33.4721C26.6001 33.4721 27.9932 32.4266 28.2407 31.0403C28.5255 29.4468 27.2623 28.3758 25.9855 27.9048Z" fill="#475959"/>
<path d="M10.6265 28.1683L13.1778 24.5468C13.3938 24.2402 13.3204 23.8165 13.0137 23.6006C12.7072 23.3845 12.2834 23.458 12.0675 23.7647L9.79648 26.9884L7.52891 23.7651C7.31313 23.4584 6.8895 23.3847 6.58276 23.6004C6.27603 23.8162 6.20228 24.2398 6.41806 24.5465L8.96556 28.1679L5.98212 32.4028C5.76617 32.7094 5.83956 33.1331 6.14621 33.349C6.26513 33.4328 6.40153 33.473 6.53671 33.473C6.75011 33.473 6.96017 33.3727 7.09244 33.185L9.79569 29.3477L12.4949 33.1847C12.6272 33.3727 12.8373 33.4731 13.0509 33.4731C13.1859 33.4731 13.3223 33.433 13.441 33.3494C13.7478 33.1336 13.8215 32.71 13.6057 32.4032L10.6265 28.1683Z" fill="#475959"/>
</svg>
