<svg width="500" height="896" viewBox="0 0 500 896" fill="none" xmlns="http://www.w3.org/2000/svg">
<g clip-path="url(#clip0)">
<path d="M1.54346 1.54462L1.54346 894.455H498.457L498.457 1.54462H1.54346Z" fill="#F7F7F7" fill-opacity="0.05" stroke="white" stroke-opacity="0.05"/>
<path d="M49.6598 785.358H373.734V836.337H49.6598V785.358ZM373.734 702.665V748.546H49.6598V684.59L243.641 632.22H49.6598V586.802H373.734V639.172L139.012 702.665H373.734ZM127.438 556.79C101.203 556.79 81.1412 550.456 67.2524 537.788C53.0548 525.121 45.9561 506.428 45.9561 481.711C45.9561 456.994 53.0548 438.301 67.2524 425.634C81.1412 412.966 101.203 406.632 127.438 406.632H137.623V454.831H124.197C113.086 454.831 105.061 456.994 100.123 461.319C94.8758 465.645 92.2523 471.978 92.2523 480.321C92.2523 488.663 94.8758 494.996 100.123 499.322C105.061 503.647 113.086 505.81 124.197 505.81C137.777 505.81 149.66 502.257 159.845 495.151C170.03 487.736 181.604 476.767 194.567 462.246C205.678 450.196 215.555 440.464 224.197 433.049C232.53 425.634 242.715 419.3 254.752 414.047C266.789 408.795 280.524 406.169 295.956 406.169C322.191 406.169 342.407 412.657 356.605 425.634C370.494 438.61 377.438 457.457 377.438 482.174C377.438 506.892 370.494 525.738 356.605 538.715C342.407 551.692 322.191 558.18 295.956 558.18H276.049V509.981H299.197C320.185 509.981 330.679 501.176 330.679 483.565C330.679 465.954 320.185 457.148 299.197 457.148C285.617 457.148 273.734 460.856 263.549 468.271C253.363 475.377 241.789 486.191 228.826 500.712C217.715 512.762 207.993 522.494 199.66 529.91C191.018 537.325 180.678 543.659 168.641 548.911C156.604 554.163 142.87 556.79 127.438 556.79ZM186.234 256.002H232.53V325.983H327.438V237.928H373.734L373.734 376.962H49.6598L49.6598 237.928H95.9561V325.983H186.234V256.002ZM127.438 210.507C101.512 210.507 81.4499 203.864 67.2524 190.579C53.0548 177.293 45.9561 158.137 45.9561 133.111C45.9561 108.085 53.0548 88.9292 67.2524 75.6437C81.4499 62.3582 101.512 55.7154 127.438 55.7154H295.956C321.883 55.7154 341.944 62.3582 356.142 75.6437C370.339 88.9292 377.438 108.085 377.438 133.111C377.438 158.137 370.339 177.293 356.142 190.579C341.944 203.864 321.883 210.507 295.956 210.507H127.438ZM299.197 159.528C320.494 159.528 331.142 150.722 331.142 133.111C331.142 115.5 320.494 106.695 299.197 106.695H124.197C102.9 106.695 92.2523 115.5 92.2523 133.111C92.2523 150.722 102.9 159.528 124.197 159.528H299.197Z" fill="#575555" fill-opacity="0.05"/>
<path d="M49.6598 785.358V782.268H46.5733V785.358H49.6598ZM373.734 785.358H376.821V782.268H373.734V785.358ZM373.734 836.337V839.427H376.821V836.337H373.734ZM49.6598 836.337H46.5733V839.427H49.6598V836.337ZM49.6598 788.447H373.734V782.268H49.6598V788.447ZM370.648 785.358V836.337H376.821V785.358H370.648ZM373.734 833.247H49.6598V839.427H373.734V833.247ZM52.7462 836.337V785.358H46.5733V836.337H52.7462ZM373.734 702.665H376.821V699.575H373.734V702.665ZM373.734 748.546V751.636H376.821V748.546H373.734ZM49.6598 748.546H46.5733V751.636H49.6598V748.546ZM49.6598 684.59L48.856 681.607L46.5733 682.224V684.59H49.6598ZM243.641 632.221L244.445 635.204L243.641 629.131V632.221ZM49.6598 632.221H46.5733V635.31H49.6598V632.221ZM49.6598 586.803V583.713H46.5733V586.803H49.6598ZM373.734 586.803H376.821V583.713H373.734V586.803ZM373.734 639.172L374.54 642.155L376.821 641.538V639.172H373.734ZM139.012 702.665L138.207 699.682L139.012 705.754V702.665ZM370.648 702.665V748.546H376.821V702.665H370.648ZM373.734 745.456H49.6598V751.636H373.734V745.456ZM52.7462 748.546V684.59H46.5733V748.546H52.7462ZM50.4635 687.573L244.445 635.204L242.838 629.238L48.856 681.607L50.4635 687.573ZM243.641 629.131H49.6598V635.31H243.641V629.131ZM52.7462 632.221V586.803H46.5733V632.221H52.7462ZM49.6598 589.892H373.734V583.713H49.6598V589.892ZM370.648 586.803V639.172H376.821V586.803H370.648ZM372.929 636.19L138.207 699.682L139.817 705.647L374.54 642.155L372.929 636.19ZM139.012 705.754H373.734V699.575H139.012V705.754ZM67.2523 537.788L69.3314 535.505L69.306 535.484L67.2523 537.788ZM67.2523 425.634L69.306 427.942L69.3311 427.92L67.2523 425.634ZM137.623 406.633H140.709V403.543H137.623V406.633ZM137.623 454.831V457.921H140.709V454.831H137.623ZM100.123 461.319L102.085 463.705L102.121 463.677L102.155 463.646L100.123 461.319ZM100.123 499.322L102.155 496.999L102.121 496.968L102.085 496.937L100.123 499.322ZM159.845 495.151L161.61 497.688L161.635 497.669L161.66 497.651L159.845 495.151ZM194.567 462.246L192.299 460.152L192.283 460.17L192.266 460.189L194.567 462.246ZM224.197 433.049L226.205 435.397L226.227 435.379L226.247 435.36L224.197 433.049ZM254.752 414.048L253.519 411.218L254.752 414.048ZM356.605 425.634L358.71 423.375L358.685 423.354L356.605 425.634ZM356.605 538.715L358.685 540.999L358.71 540.974L356.605 538.715ZM276.049 558.18H272.962V561.27H276.049V558.18ZM276.049 509.981V506.892H272.962V509.981H276.049ZM263.549 468.271L265.313 470.808L265.339 470.789L265.364 470.771L263.549 468.271ZM228.826 500.713L231.094 502.81L231.111 502.792L231.128 502.773L228.826 500.713ZM199.66 529.91L201.668 532.258L201.69 532.239L201.71 532.221L199.66 529.91ZM127.438 553.7C101.667 553.7 82.4604 547.481 69.3311 535.505L65.1736 540.075C79.8224 553.434 100.739 559.879 127.438 559.879V553.7ZM69.306 535.484C55.9483 523.564 49.0425 505.829 49.0425 481.711H42.8696C42.8696 507.031 50.1613 526.678 65.199 540.096L69.306 535.484ZM49.0425 481.711C49.0425 457.596 55.9483 439.859 69.306 427.942L65.199 423.329C50.1613 436.744 42.8696 456.395 42.8696 481.711H49.0425ZM69.3311 427.92C82.4604 415.945 101.667 409.722 127.438 409.722V403.543C100.739 403.543 79.8224 409.991 65.1736 423.351L69.3311 427.92ZM127.438 409.722H137.623V403.543H127.438V409.722ZM134.536 406.633V454.831H140.709V406.633H134.536ZM137.623 451.741H124.197V457.921H137.623V451.741ZM124.197 451.741C112.816 451.741 103.869 453.935 98.0903 458.996L102.155 463.646C106.253 460.056 113.356 457.921 124.197 457.921V451.741ZM98.1607 458.934C92.0425 463.98 89.1659 471.287 89.1659 480.321H95.3388C95.3388 472.674 97.7094 467.313 102.085 463.705L98.1607 458.934ZM89.1659 480.321C89.1659 489.358 92.0425 496.665 98.1607 501.707L102.085 496.937C97.7094 493.331 95.3388 487.971 95.3388 480.321H89.1659ZM98.0903 501.649C103.869 506.71 112.816 508.9 124.197 508.9V502.721C113.356 502.721 106.253 500.589 102.155 496.999L98.0903 501.649ZM124.197 508.9C138.346 508.9 150.858 505.189 161.61 497.688L158.08 492.618C148.462 499.328 137.208 502.721 124.197 502.721V508.9ZM161.66 497.651C172.091 490.056 183.829 478.912 196.869 464.307L192.266 460.189C179.379 474.624 167.969 485.416 158.03 492.655L161.66 497.651ZM196.835 464.344C207.897 452.347 217.685 442.707 226.205 435.397L222.188 430.704C213.425 438.224 203.46 448.049 192.299 460.152L196.835 464.344ZM226.247 435.36C234.299 428.195 244.195 422.025 255.986 416.881L253.519 411.218C241.236 416.575 230.762 423.076 222.146 430.741L226.247 435.36ZM255.986 416.881C267.572 411.826 280.875 409.259 295.956 409.259V403.079C280.173 403.079 266.007 405.767 253.519 411.218L255.986 416.881ZM295.956 409.259C321.704 409.259 341.074 415.623 354.525 427.917L358.685 423.354C343.741 409.691 322.676 403.079 295.956 403.079V409.259ZM354.5 427.892C367.589 440.124 374.352 458.044 374.352 482.175H380.525C380.525 456.873 373.398 437.1 358.71 423.375L354.5 427.892ZM374.352 482.175C374.352 506.308 367.589 524.228 354.5 536.457L358.71 540.974C373.398 527.253 380.525 507.479 380.525 482.175H374.352ZM354.525 536.435C341.074 548.726 321.704 555.09 295.956 555.09V561.27C322.676 561.27 343.741 554.658 358.685 540.999L354.525 536.435ZM295.956 555.09H276.049V561.27H295.956V555.09ZM279.135 558.18V509.981H272.962V558.18H279.135ZM276.049 513.071H299.197V506.892H276.049V513.071ZM299.197 513.071C310.046 513.071 318.759 510.806 324.79 505.746C330.926 500.598 333.765 493.004 333.765 483.565H327.592C327.592 491.737 325.182 497.354 320.824 501.009C316.364 504.754 309.333 506.892 299.197 506.892V513.071ZM333.765 483.565C333.765 474.126 330.926 466.535 324.79 461.384C318.759 456.323 310.046 454.059 299.197 454.059V460.238C309.333 460.238 316.364 462.376 320.824 466.121C325.182 469.779 327.592 475.393 327.592 483.565H333.765ZM299.197 454.059C285.018 454.059 272.488 457.942 261.734 465.775L265.364 470.771C274.98 463.77 286.215 460.238 299.197 460.238V454.059ZM261.784 465.738C251.324 473.035 239.569 484.044 226.525 498.655L231.128 502.773C244.01 488.342 255.403 477.722 265.313 470.808L261.784 465.738ZM226.559 498.618C215.488 510.624 205.841 520.276 197.609 527.602L201.71 532.221C210.146 524.713 219.943 514.903 231.094 502.81L226.559 498.618ZM197.651 527.565C189.275 534.751 179.206 540.931 167.408 546.081L169.875 551.744C182.15 546.387 192.761 539.899 201.668 532.258L197.651 527.565ZM167.408 546.081C155.822 551.136 142.519 553.7 127.438 553.7V559.879C143.221 559.879 157.387 557.195 169.875 551.744L167.408 546.081ZM186.234 256.003V252.913H183.147V256.003H186.234ZM232.53 256.003H235.617V252.913H232.53V256.003ZM232.53 325.983H229.444V329.073H232.53V325.983ZM327.438 325.983V329.073H330.525V325.983H327.438ZM327.438 237.928V234.838H324.352V237.928H327.438ZM373.734 237.928H376.821V234.838H373.734V237.928ZM373.734 376.963V380.052H376.821V376.963H373.734ZM49.6598 376.963H46.5733V380.052H49.6598V376.963ZM49.6598 237.928V234.838H46.5733V237.928H49.6598ZM95.9561 237.928H99.0425V234.838H95.9561V237.928ZM95.9561 325.983H92.8696V329.073H95.9561V325.983ZM186.234 325.983V329.073H189.32V325.983H186.234ZM186.234 259.092H232.53V252.913H186.234V259.092ZM229.444 256.003V325.983H235.617V256.003H229.444ZM232.53 329.073H327.438V322.894H232.53V329.073ZM330.525 325.983V237.928H324.352V325.983H330.525ZM327.438 241.018H373.734V234.838H327.438V241.018ZM370.648 237.928L370.648 376.963H376.821L376.821 237.928H370.648ZM373.734 373.873H49.6598V380.052H373.734L373.734 373.873ZM52.7462 376.963L52.7462 237.928H46.5733L46.5733 376.963H52.7462ZM49.6598 241.018H95.9561V234.838H49.6598V241.018ZM92.8696 237.928V325.983H99.0425V237.928H92.8696ZM95.9561 329.073H186.234V322.894H95.9561V329.073ZM189.32 325.983V256.003H183.147V325.983H189.32ZM67.2523 190.579L65.1449 192.838L67.2523 190.579ZM67.2523 75.644L65.1449 73.3885L67.2523 75.644ZM356.142 75.644L358.25 73.3885L356.142 75.644ZM356.142 190.579L358.25 192.838L356.142 190.579ZM127.438 207.418C102.027 207.418 82.8169 200.914 69.3601 188.324L65.1449 192.838C80.0832 206.815 100.996 213.597 127.438 213.597V207.418ZM69.3601 188.324C55.9539 175.777 49.0425 157.541 49.0425 133.112H42.8696C42.8696 158.734 50.156 178.811 65.1449 192.838L69.3601 188.324ZM49.0425 133.112C49.0425 108.682 55.9539 90.4465 69.3601 77.9025L65.1449 73.3885C50.156 87.4125 42.8696 107.489 42.8696 133.112H49.0425ZM69.3601 77.9025C82.8169 65.3091 102.027 58.8054 127.438 58.8054V52.626C100.996 52.626 80.0832 59.4078 65.1449 73.3885L69.3601 77.9025ZM127.438 58.8054H295.956V52.626H127.438V58.8054ZM295.956 58.8054C321.367 58.8054 340.577 65.3091 354.034 77.9025L358.25 73.3885C343.312 59.4078 322.398 52.626 295.956 52.626V58.8054ZM354.034 77.9025C367.441 90.4465 374.352 108.682 374.352 133.112H380.525C380.525 107.489 373.238 87.4125 358.25 73.3885L354.034 77.9025ZM374.352 133.112C374.352 157.541 367.441 175.777 354.034 188.324L358.25 192.838C373.238 178.811 380.525 158.734 380.525 133.112H374.352ZM354.034 188.324C340.577 200.914 321.367 207.418 295.956 207.418V213.597C322.398 213.597 343.312 206.815 358.25 192.838L354.034 188.324ZM295.956 207.418H127.438V213.597H295.956V207.418ZM299.197 162.618C310.191 162.618 319.012 160.356 325.12 155.308C331.342 150.163 334.228 142.566 334.228 133.112H328.055C328.055 141.268 325.617 146.882 321.188 150.543C316.648 154.297 309.497 156.438 299.197 156.438V162.618ZM334.228 133.112C334.228 123.657 331.342 116.063 325.12 110.919C319.012 105.867 310.191 103.605 299.197 103.605V109.785C309.497 109.785 316.648 111.926 321.188 115.683C325.617 119.344 328.055 124.955 328.055 133.112H334.228ZM299.197 103.605H124.197V109.785H299.197V103.605ZM124.197 103.605C113.201 103.605 104.38 105.867 98.273 110.919C92.0523 116.063 89.1659 123.657 89.1659 133.112H95.3388C95.3388 124.955 97.7764 119.344 102.204 115.683C106.745 111.926 113.896 109.785 124.197 109.785V103.605ZM89.1659 133.112C89.1659 142.566 92.0523 150.163 98.273 155.308C104.38 160.356 113.201 162.618 124.197 162.618V156.438C113.896 156.438 106.745 154.297 102.204 150.543C97.7764 146.882 95.3388 141.268 95.3388 133.112H89.1659ZM124.197 162.618H299.197V156.438H124.197V162.618Z" fill="white" fill-opacity="0.05"/>
<path d="M428.394 790.952H462.962V798.911H434.913V814.532H462.962V822.491H428.394V790.952ZM428.394 762.452C428.394 759.387 428.904 756.734 429.925 754.493C430.947 752.219 432.394 750.472 434.271 749.253C436.148 748.034 438.37 747.424 440.938 747.424C443.472 747.424 445.694 748.034 447.604 749.253C449.481 750.472 450.928 752.219 451.95 754.493C452.938 756.734 453.432 759.387 453.432 762.452V769.422H462.962V777.43H428.394V762.452ZM446.913 762.897C446.913 760.491 446.404 758.662 445.382 757.409C444.33 756.157 442.848 755.531 440.938 755.531C438.996 755.531 437.515 756.157 436.493 757.409C435.441 758.662 434.913 760.491 434.913 762.897V769.422H446.913V762.897ZM463.555 720.204C463.555 723.796 462.78 727.042 461.234 729.942C459.688 732.809 457.564 735.067 454.864 736.715C452.132 738.33 449.07 739.137 445.678 739.137C442.286 739.137 439.243 738.33 436.543 736.715C433.811 735.067 431.669 732.809 430.123 729.942C428.577 727.042 427.802 723.796 427.802 720.204C427.802 716.611 428.577 713.382 430.123 710.514C431.669 707.647 433.811 705.39 436.543 703.742C439.243 702.094 442.286 701.27 445.678 701.27C449.07 701.27 452.132 702.094 454.864 703.742C457.564 705.39 459.688 707.647 461.234 710.514C462.78 713.382 463.555 716.611 463.555 720.204ZM456.74 720.204C456.74 718.16 456.28 716.315 455.357 714.667C454.404 713.019 453.086 711.734 451.407 710.811C449.728 709.855 447.817 709.377 445.678 709.377C443.54 709.377 441.629 709.855 439.95 710.811C438.271 711.734 436.972 713.019 436.049 714.667C435.095 716.315 434.617 718.16 434.617 720.204C434.617 722.247 435.095 724.092 436.049 725.74C436.972 727.388 438.271 728.69 439.95 729.646C441.629 730.568 443.54 731.03 445.678 731.03C447.817 731.03 449.728 730.568 451.407 729.646C453.086 728.69 454.404 727.388 455.357 725.74C456.28 724.092 456.74 722.247 456.74 720.204ZM456.444 655.431H470.123V662.846H462.962V687.267H470.123V694.682L456.444 694.633V693.248C456.379 691.172 454.864 689.706 451.901 688.849C448.938 687.992 444.706 687.465 439.209 687.267L428.394 686.871V660.276H456.444V655.431ZM439.95 680.198C444.064 680.363 447.521 680.709 450.32 681.236C453.086 681.763 455.126 682.571 456.444 683.658V668.185H434.913V680.049L439.95 680.198ZM444.938 621.121C445.564 619.012 446.583 617.397 447.999 616.276C449.416 615.156 451.16 614.596 453.234 614.596C456.296 614.596 458.682 615.765 460.395 618.106C462.107 620.412 462.962 623.724 462.962 628.042V645.097H428.394V628.981C428.394 624.96 429.169 621.83 430.715 619.589C432.262 617.347 434.469 616.227 437.333 616.227C439.046 616.227 440.558 616.655 441.876 617.512C443.16 618.369 444.182 619.572 444.938 621.121ZM442.715 637.138V629.673C442.715 627.926 442.37 626.608 441.678 625.718C440.953 624.829 439.901 624.384 438.518 624.384C437.169 624.384 436.132 624.845 435.407 625.768C434.682 626.658 434.32 627.959 434.32 629.673V637.138H442.715ZM457.036 628.338C457.036 624.581 455.555 622.703 452.592 622.703C449.728 622.703 448.296 624.581 448.296 628.338V637.138H457.036V628.338ZM428.394 603.319V595.36H450.913L428.394 578.847V571.333H462.962V579.243H440.493L462.962 595.755V603.319H428.394ZM449.037 526.385V531.427H462.962V539.287H449.037V544.428L462.962 552.19V561.434L444.888 551.053L428.394 560.791V552.338L442.37 544.577V539.287H428.394V531.427H442.37V526.286L428.394 518.475V510.022L444.888 519.711L462.962 509.379V518.624L449.037 526.385ZM456.543 473.805H462.962V500.599H428.394V474.448H434.814V492.64H442.32V476.573H448.543V492.64H456.543V473.805ZM428.394 430.655H462.962V438.663H448.79V454.383H462.962V462.392H428.394V454.383H442.024V438.663H428.394V430.655ZM428.394 417.042V409.083H450.913L428.394 392.572V385.058H462.962V392.967H440.493L462.962 409.478V417.042H428.394ZM456.543 344.704H462.962V371.497H428.394V345.346H434.814V363.538H442.32V347.472H448.543V363.538H456.543V344.704ZM463.555 297.985C463.555 301.513 462.799 304.708 461.283 307.575C459.737 310.412 457.614 312.652 454.913 314.298C452.182 315.914 449.101 316.721 445.678 316.721C442.256 316.721 439.194 315.914 436.493 314.298C433.762 312.652 431.638 310.412 430.123 307.575C428.577 304.708 427.802 301.495 427.802 297.936C427.802 294.939 428.33 292.235 429.382 289.828C430.435 287.391 431.95 285.348 433.925 283.699L438.666 288.84C435.965 291.182 434.617 294.08 434.617 297.54C434.617 299.684 435.095 301.594 436.049 303.275C436.972 304.955 438.271 306.275 439.95 307.229C441.629 308.153 443.54 308.614 445.678 308.614C447.817 308.614 449.728 308.153 451.407 307.229C453.086 306.275 454.404 304.955 455.357 303.275C456.28 301.594 456.74 299.684 456.74 297.54C456.74 294.08 455.373 291.182 452.641 288.84L457.382 283.699C459.391 285.348 460.922 287.391 461.975 289.828C463.027 292.269 463.555 294.988 463.555 297.985ZM455.555 250.781V266.848L462.962 269.912V278.119L428.394 262.695V254.786L462.962 239.312V247.716L455.555 250.781ZM449.481 253.302L436.246 258.79L449.481 264.277V253.302ZM428.394 229.781V221.822H450.913L428.394 205.311V197.797H462.962V205.706H440.493L462.962 222.217V229.781H428.394ZM426.172 213.814C426.172 220.141 423.654 223.336 418.617 223.404V217.917C421.021 217.849 422.222 216.483 422.222 213.814C422.222 212.494 421.925 211.49 421.333 210.798C420.706 210.106 419.802 209.741 418.617 209.711V204.223C421.086 204.254 422.962 205.064 424.246 206.646C425.53 208.227 426.172 210.616 426.172 213.814ZM434.913 157.789V168.862H462.962V176.772H434.913V187.796H428.394V157.789H434.913ZM463.555 131.789C463.555 135.38 462.78 138.627 461.234 141.528C459.688 144.395 457.564 146.651 454.864 148.3C452.132 149.913 449.07 150.723 445.678 150.723C442.286 150.723 439.243 149.913 436.543 148.3C433.811 146.651 431.669 144.395 430.123 141.528C428.577 138.627 427.802 135.38 427.802 131.789C427.802 128.196 428.577 124.967 430.123 122.1C431.669 119.233 433.811 116.974 436.543 115.328C439.243 113.678 442.286 112.856 445.678 112.856C449.07 112.856 452.132 113.678 454.864 115.328C457.564 116.974 459.688 119.233 461.234 122.1C462.78 124.967 463.555 128.196 463.555 131.789ZM456.74 131.789C456.74 129.744 456.28 127.9 455.357 126.253C454.404 124.603 453.086 123.318 451.407 122.397C449.728 121.439 447.817 120.963 445.678 120.963C443.54 120.963 441.629 121.439 439.95 122.397C438.271 123.318 436.972 124.603 436.049 126.253C435.095 127.9 434.617 129.744 434.617 131.789C434.617 133.832 435.095 135.676 436.049 137.326C436.972 138.973 438.271 140.274 439.95 141.231C441.629 142.152 443.54 142.616 445.678 142.616C447.817 142.616 449.728 142.152 451.407 141.231C453.086 140.274 454.404 138.973 455.357 137.326C456.28 135.676 456.74 133.832 456.74 131.789ZM444.938 77.7668C445.564 75.6566 446.583 74.0437 447.999 72.9222C449.416 71.8006 451.16 71.2415 453.234 71.2415C456.296 71.2415 458.682 72.4124 460.395 74.7513C462.107 77.0593 462.962 80.3713 462.962 84.6876V101.742H428.394V85.6268C428.394 81.6072 429.169 78.4744 430.715 76.2343C432.262 73.9943 434.469 72.8727 437.333 72.8727C439.046 72.8727 440.558 73.3022 441.876 74.1581C443.16 75.0139 444.182 76.2189 444.938 77.7668ZM442.715 93.7836V86.3189C442.715 84.5732 442.37 83.254 441.678 82.3641C440.953 81.4743 439.901 81.0295 438.518 81.0295C437.169 81.0295 436.132 81.4899 435.407 82.4136C434.682 83.3035 434.32 84.6041 434.32 86.3189V93.7836H442.715ZM457.036 84.9843C457.036 81.2272 455.555 79.3487 452.592 79.3487C449.728 79.3487 448.296 81.2272 448.296 84.9843V93.7836H457.036V84.9843Z" fill="#575555" fill-opacity="0.05"/>
<path d="M428.395 790.952V787.863H425.309V790.952H428.395ZM462.963 790.952H466.049V787.863H462.963V790.952ZM462.963 798.911V802.001H466.049V798.911H462.963ZM434.913 798.911V795.822H431.827V798.911H434.913ZM434.913 814.532H431.827V817.622H434.913V814.532ZM462.963 814.532H466.049V811.443H462.963V814.532ZM462.963 822.491V825.581H466.049V822.491H462.963ZM428.395 822.491H425.309V825.581H428.395V822.491ZM428.395 794.042H462.963V787.863H428.395V794.042ZM459.876 790.952V798.911H466.049V790.952H459.876ZM462.963 795.822H434.913V802.001H462.963V795.822ZM431.827 798.911V814.532H438V798.911H431.827ZM434.913 817.622H462.963V811.443H434.913V817.622ZM459.876 814.532V822.491H466.049V814.532H459.876ZM462.963 819.402H428.395V825.581H462.963V819.402ZM431.481 822.491V790.952H425.309V822.491H431.481ZM429.926 754.493L432.734 755.775L432.741 755.759L429.926 754.493ZM447.605 749.253L449.284 746.661L449.265 746.648L447.605 749.253ZM451.951 754.493L454.775 753.246L454.765 753.227L451.951 754.493ZM453.432 769.422H450.346V772.512H453.432V769.422ZM462.963 769.422H466.049V766.333H462.963V769.422ZM462.963 777.431V780.52H466.049V777.431H462.963ZM428.395 777.431H425.309V780.52H428.395V777.431ZM445.383 757.41L447.775 755.457L447.759 755.438L447.744 755.42L445.383 757.41ZM436.494 757.41L438.855 759.4L438.87 759.381L438.886 759.363L436.494 757.41ZM434.913 769.422H431.827V772.512H434.913V769.422ZM446.913 769.422V772.512H450V769.422H446.913ZM431.481 762.452C431.481 759.724 431.935 757.528 432.734 755.775L427.117 753.211C425.873 755.941 425.309 759.05 425.309 762.452H431.481ZM432.741 755.759C433.546 753.964 434.63 752.705 435.951 751.845L432.592 746.661C430.16 748.24 428.346 750.475 427.111 753.227L432.741 755.759ZM435.951 751.845C437.256 750.996 438.876 750.514 440.938 750.514V744.334C437.864 744.334 435.04 745.071 432.592 746.661L435.951 751.845ZM440.938 750.514C442.957 750.514 444.589 750.992 445.944 751.858L449.265 746.648C446.802 745.075 443.988 744.334 440.938 744.334V750.514ZM445.926 751.845C447.247 752.705 448.33 753.964 449.136 755.759L454.765 753.227C453.531 750.475 451.716 748.24 449.284 746.661L445.926 751.845ZM449.126 755.74C449.904 757.503 450.346 759.712 450.346 762.452H456.518C456.518 759.062 455.972 755.966 454.775 753.246L449.126 755.74ZM450.346 762.452V769.422H456.518V762.452H450.346ZM453.432 772.512H462.963V766.333H453.432V772.512ZM459.876 769.422V777.431H466.049V769.422H459.876ZM462.963 774.341H428.395V780.52H462.963V774.341ZM431.481 777.431V762.452H425.309V777.431H431.481ZM450 762.897C450 760.114 449.417 757.474 447.775 755.457L442.991 759.363C443.389 759.851 443.827 760.868 443.827 762.897H450ZM447.744 755.42C446.003 753.35 443.589 752.442 440.938 752.442V758.621C442.108 758.621 442.654 758.965 443.021 759.4L447.744 755.42ZM440.938 752.442C438.278 752.442 435.83 753.338 434.102 755.457L438.886 759.363C439.201 758.977 439.716 758.621 440.938 758.621V752.442ZM434.133 755.42C432.435 757.439 431.827 760.095 431.827 762.897H438C438 760.887 438.447 759.885 438.855 759.4L434.133 755.42ZM431.827 762.897V769.422H438V762.897H431.827ZM434.913 772.512H446.913V766.333H434.913V772.512ZM450 769.422V762.897H443.827V769.422H450ZM461.234 729.942L463.951 731.411L463.957 731.398L461.234 729.942ZM454.864 736.715L456.432 739.375L456.454 739.364L456.472 739.353L454.864 736.715ZM436.543 736.715L434.95 739.361L434.96 739.367L436.543 736.715ZM430.123 729.942L427.401 731.398L427.407 731.411L430.123 729.942ZM436.543 703.742L438.136 706.389L438.151 706.38L436.543 703.742ZM454.864 703.742L456.472 701.104L456.457 701.095L454.864 703.742ZM461.234 710.515L463.951 709.046L461.234 710.515ZM455.358 714.667L458.052 713.157L458.04 713.137L458.028 713.117L455.358 714.667ZM451.407 710.811L449.883 713.497L449.901 713.508L449.923 713.52L451.407 710.811ZM439.951 710.811L441.435 713.52L441.457 713.508L441.475 713.497L439.951 710.811ZM436.049 714.667L438.719 716.217L438.731 716.197L438.744 716.177L436.049 714.667ZM436.049 725.74L438.744 724.231L438.731 724.21L438.719 724.19L436.049 725.74ZM439.951 729.646L438.426 732.332L438.444 732.343L438.466 732.354L439.951 729.646ZM451.407 729.646L452.892 732.354L452.913 732.343L452.932 732.332L451.407 729.646ZM455.358 725.74L458.028 727.29L458.04 727.27L458.052 727.25L455.358 725.74ZM460.469 720.204C460.469 723.336 459.799 726.075 458.512 728.487L463.957 731.398C465.765 728.009 466.642 724.256 466.642 720.204H460.469ZM458.518 728.474C457.222 730.875 455.475 732.722 453.256 734.077L456.472 739.353C459.651 737.412 462.151 734.744 463.951 731.411L458.518 728.474ZM453.296 734.054C451.071 735.369 448.559 736.047 445.679 736.047V742.227C449.583 742.227 453.191 741.291 456.432 739.375L453.296 734.054ZM445.679 736.047C442.799 736.047 440.309 735.369 438.126 734.063L434.96 739.367C438.176 741.291 441.775 742.227 445.679 742.227V736.047ZM438.136 734.068C435.886 732.712 434.13 730.865 432.839 728.474L427.407 731.411C429.213 734.754 431.734 737.422 434.95 739.361L438.136 734.068ZM432.846 728.487C431.559 726.075 430.889 723.336 430.889 720.204H424.716C424.716 724.256 425.592 728.009 427.401 731.398L432.846 728.487ZM430.889 720.204C430.889 717.071 431.559 714.354 432.839 711.983L427.407 709.046C425.592 712.409 424.716 716.152 424.716 720.204H430.889ZM432.839 711.983C434.13 709.591 435.886 707.745 438.136 706.389L434.95 701.095C431.734 703.035 429.213 705.703 427.407 709.046L432.839 711.983ZM438.151 706.38C440.33 705.049 442.812 704.36 445.679 704.36V698.181C441.762 698.181 438.154 699.139 434.935 701.104L438.151 706.38ZM445.679 704.36C448.546 704.36 451.049 705.049 453.271 706.389L456.457 701.095C453.213 699.139 449.596 698.181 445.679 698.181V704.36ZM453.256 706.38C455.475 707.735 457.222 709.582 458.518 711.983L463.951 709.046C462.151 705.713 459.651 703.045 456.472 701.104L453.256 706.38ZM458.518 711.983C459.799 714.354 460.469 717.071 460.469 720.204H466.642C466.642 716.152 465.765 712.409 463.951 709.046L458.518 711.983ZM459.827 720.204C459.827 717.676 459.253 715.304 458.052 713.157L452.663 716.177C453.309 717.326 453.654 718.644 453.654 720.204H459.827ZM458.028 713.117C456.79 710.979 455.062 709.294 452.892 708.103L449.923 713.52C451.111 714.173 452.018 715.059 452.688 716.217L458.028 713.117ZM452.932 708.125C450.741 706.877 448.293 706.288 445.679 706.288V712.467C447.342 712.467 448.716 712.834 449.883 713.497L452.932 708.125ZM445.679 706.288C443.065 706.288 440.617 706.877 438.426 708.125L441.475 713.497C442.642 712.834 444.015 712.467 445.679 712.467V706.288ZM438.466 708.103C436.287 709.3 434.565 710.997 433.355 713.157L438.744 716.177C439.376 715.042 440.256 714.168 441.435 713.52L438.466 708.103ZM433.379 713.117C432.133 715.27 431.531 717.657 431.531 720.204H437.704C437.704 718.664 438.059 717.36 438.719 716.217L433.379 713.117ZM431.531 720.204C431.531 722.751 432.133 725.138 433.379 727.29L438.719 724.19C438.059 723.047 437.704 721.744 437.704 720.204H431.531ZM433.355 727.25C434.559 729.401 436.268 731.104 438.426 732.332L441.475 726.96C440.275 726.276 439.383 725.375 438.744 724.231L433.355 727.25ZM438.466 732.354C440.651 733.555 443.08 734.12 445.679 734.12V727.94C443.997 727.94 442.608 727.582 441.435 726.937L438.466 732.354ZM445.679 734.12C448.275 734.12 450.707 733.555 452.892 732.354L449.923 726.937C448.75 727.582 447.361 727.94 445.679 727.94V734.12ZM452.932 732.332C455.08 731.11 456.793 729.419 458.028 727.29L452.688 724.19C452.012 725.357 451.092 726.27 449.883 726.96L452.932 732.332ZM458.052 727.25C459.253 725.104 459.827 722.731 459.827 720.204H453.654C453.654 721.763 453.309 723.081 452.663 724.231L458.052 727.25ZM456.444 655.431V652.342H453.358V655.431H456.444ZM470.123 655.431H473.21V652.342H470.123V655.431ZM470.123 662.846V665.936H473.21V662.846H470.123ZM462.963 662.846V659.757H459.876V662.846H462.963ZM462.963 687.267H459.876V690.357H462.963V687.267ZM470.123 687.267H473.21V684.177H470.123V687.267ZM470.123 694.682L470.111 697.772L473.21 697.783V694.682H470.123ZM456.444 694.633H453.358V697.711L456.432 697.723L456.444 694.633ZM456.444 693.249H459.531V693.2L459.528 693.151L456.444 693.249ZM451.901 688.849L451.043 691.818L451.901 688.849ZM439.21 687.267L439.096 690.355H439.099L439.21 687.267ZM428.395 686.872H425.309V689.851L428.281 689.959L428.395 686.872ZM428.395 660.276V657.186H425.309V660.276H428.395ZM456.444 660.276V663.366H459.531V660.276H456.444ZM439.951 680.198L440.074 677.111L440.04 677.11L439.951 680.198ZM450.321 681.236L450.898 678.201L450.892 678.2L450.321 681.236ZM456.444 683.658L454.481 686.042L459.531 690.213V683.658H456.444ZM456.444 668.185H459.531V665.096H456.444V668.185ZM434.913 668.185V665.096H431.827V668.185H434.913ZM434.913 680.05H431.827V683.05L434.824 683.138L434.913 680.05ZM456.444 658.521H470.123V652.342H456.444V658.521ZM467.037 655.431V662.846H473.21V655.431H467.037ZM470.123 659.757H462.963V665.936H470.123V659.757ZM459.876 662.846V687.267H466.049V662.846H459.876ZM462.963 690.357H470.123V684.177H462.963V690.357ZM467.037 687.267V694.682H473.21V687.267H467.037ZM470.136 691.593L456.457 691.544L456.432 697.723L470.111 697.772L470.136 691.593ZM459.531 694.633V693.249H453.358V694.633H459.531ZM459.528 693.151C459.469 691.296 458.728 689.653 457.404 688.371C456.157 687.162 454.515 686.389 452.759 685.881L451.043 691.818C452.25 692.166 452.849 692.555 453.114 692.812C453.302 692.997 453.352 693.125 453.361 693.347L459.528 693.151ZM452.759 685.881C449.432 684.92 444.907 684.38 439.321 684.18L439.099 690.355C444.509 690.55 448.444 691.065 451.043 691.818L452.759 685.881ZM439.324 684.18L428.509 683.784L428.281 689.959L439.096 690.355L439.324 684.18ZM431.481 686.872V660.276H425.309V686.872H431.481ZM428.395 663.366H456.444V657.186H428.395V663.366ZM459.531 660.276V655.431H453.358V660.276H459.531ZM439.827 683.285C443.852 683.446 447.148 683.782 449.75 684.273L450.892 678.2C447.898 677.635 444.281 677.279 440.074 677.111L439.827 683.285ZM449.744 684.271C452.293 684.757 453.744 685.433 454.481 686.042L458.407 681.275C456.512 679.709 453.88 678.77 450.898 678.201L449.744 684.271ZM459.531 683.658V668.185H453.358V683.658H459.531ZM456.444 665.096H434.913V671.275H456.444V665.096ZM431.827 668.185V680.05H438V668.185H431.827ZM434.824 683.138L439.861 683.286L440.04 677.11L435.003 676.962L434.824 683.138ZM444.938 621.121L442.167 622.479L445.645 629.595L447.898 622.001L444.938 621.121ZM448 616.277L449.913 618.7L448 616.277ZM460.395 618.106L457.904 619.931L457.917 619.948L460.395 618.106ZM462.963 645.097V648.187H466.049V645.097H462.963ZM428.395 645.097H425.309V648.187H428.395V645.097ZM430.716 619.589L428.176 617.832L430.716 619.589ZM441.876 617.513L443.589 614.942L443.559 614.922L441.876 617.513ZM442.716 637.138V640.228H445.802V637.138H442.716ZM441.679 625.719L444.114 623.822L444.092 623.794L444.071 623.767L441.679 625.719ZM435.407 625.768L437.799 627.72L437.818 627.699L437.833 627.677L435.407 625.768ZM434.321 637.138H431.234V640.228H434.321V637.138ZM448.296 637.138H445.21V640.228H448.296V637.138ZM457.037 637.138V640.228H460.123V637.138H457.037ZM447.898 622.001C448.383 620.367 449.099 619.347 449.913 618.7L446.086 613.853C444.071 615.447 442.747 617.658 441.978 620.242L447.898 622.001ZM449.913 618.7C450.707 618.074 451.747 617.686 453.234 617.686V611.506C450.574 611.506 448.126 612.238 446.086 613.853L449.913 618.7ZM453.234 617.686C455.376 617.686 456.812 618.437 457.904 619.931L462.886 616.28C460.555 613.094 457.216 611.506 453.234 611.506V617.686ZM457.917 619.948C459.08 621.515 459.876 624.072 459.876 628.042H466.049C466.049 623.377 465.133 619.31 462.873 616.263L457.917 619.948ZM459.876 628.042V645.097H466.049V628.042H459.876ZM462.963 642.007H428.395V648.187H462.963V642.007ZM431.481 645.097V628.981H425.309V645.097H431.481ZM431.481 628.981C431.481 625.305 432.197 622.878 433.256 621.346L428.176 617.832C426.142 620.781 425.309 624.616 425.309 628.981H431.481ZM433.256 621.346C434.191 619.99 435.42 619.317 437.333 619.317V613.138C433.518 613.138 430.336 614.706 428.176 617.832L433.256 621.346ZM437.333 619.317C438.503 619.317 439.423 619.601 440.194 620.103L443.559 614.922C441.697 613.71 439.586 613.138 437.333 613.138V619.317ZM440.163 620.083C440.941 620.603 441.62 621.363 442.167 622.479L447.71 619.763C446.741 617.782 445.38 616.136 443.589 614.942L440.163 620.083ZM445.802 637.138V629.673H439.63V637.138H445.802ZM445.802 629.673C445.802 627.595 445.404 625.48 444.114 623.822L439.244 627.615C439.336 627.737 439.63 628.258 439.63 629.673H445.802ZM444.071 623.767C442.639 622.008 440.617 621.294 438.518 621.294V627.474C438.883 627.474 439.071 627.532 439.145 627.564C439.207 627.59 439.241 627.616 439.287 627.67L444.071 623.767ZM438.518 621.294C436.383 621.294 434.383 622.072 432.981 623.859L437.833 627.677C437.895 627.598 437.938 627.572 437.981 627.553C438.037 627.528 438.194 627.474 438.518 627.474V621.294ZM433.015 623.816C431.667 625.472 431.234 627.586 431.234 629.673H437.407C437.407 628.333 437.701 627.844 437.799 627.72L433.015 623.816ZM431.234 629.673V637.138H437.407V629.673H431.234ZM434.321 640.228H442.716V634.048H434.321V640.228ZM460.123 628.339C460.123 626.137 459.704 623.916 458.349 622.197C456.883 620.34 454.768 619.614 452.592 619.614V625.793C453.012 625.793 453.238 625.86 453.336 625.902C453.417 625.936 453.46 625.969 453.503 626.026C453.63 626.187 453.951 626.783 453.951 628.339H460.123ZM452.592 619.614C450.426 619.614 448.342 620.367 446.917 622.238C445.611 623.951 445.21 626.155 445.21 628.339H451.383C451.383 626.766 451.697 626.152 451.824 625.986C451.867 625.931 451.895 625.91 451.947 625.887C452.018 625.856 452.21 625.793 452.592 625.793V619.614ZM445.21 628.339V637.138H451.383V628.339H445.21ZM448.296 640.228H457.037V634.048H448.296V640.228ZM460.123 637.138V628.339H453.951V637.138H460.123ZM428.395 603.319H425.309V606.409H428.395V603.319ZM428.395 595.36V592.27H425.309V595.36H428.395ZM450.913 595.36V598.45H460.352L452.738 592.868L450.913 595.36ZM428.395 578.847H425.309V580.417L426.571 581.341L428.395 578.847ZM428.395 571.333V568.244H425.309V571.333H428.395ZM462.963 571.333H466.049V568.244H462.963V571.333ZM462.963 579.243V582.333H466.049V579.243H462.963ZM440.494 579.243V576.153H431.074L438.667 581.736L440.494 579.243ZM462.963 595.756H466.049V594.191L464.79 593.265L462.963 595.756ZM462.963 603.319V606.409H466.049V603.319H462.963ZM431.481 603.319V595.36H425.309V603.319H431.481ZM428.395 598.45H450.913V592.27H428.395V598.45ZM452.738 592.868L430.219 576.357L426.571 581.341L449.089 597.852L452.738 592.868ZM431.481 578.847V571.333H425.309V578.847H431.481ZM428.395 574.423H462.963V568.244H428.395V574.423ZM459.876 571.333V579.243H466.049V571.333H459.876ZM462.963 576.153H440.494V582.333H462.963V576.153ZM438.667 581.736L461.136 598.246L464.79 593.265L442.321 576.753L438.667 581.736ZM459.876 595.756V603.319H466.049V595.756H459.876ZM462.963 600.229H428.395V606.409H462.963V600.229ZM449.037 526.385L447.537 523.685L445.951 524.568V526.385H449.037ZM449.037 531.427H445.951V534.517H449.037V531.427ZM462.963 531.427H466.049V528.338H462.963V531.427ZM462.963 539.287V542.377H466.049V539.287H462.963ZM449.037 539.287V536.198H445.951V539.287H449.037ZM449.037 544.429H445.951V546.245L447.537 547.129L449.037 544.429ZM462.963 552.19H466.049V550.373L464.463 549.49L462.963 552.19ZM462.963 561.434L461.426 564.113L466.049 566.77V561.434H462.963ZM444.889 551.053L446.426 548.374L444.867 547.478L443.321 548.393L444.889 551.053ZM428.395 560.791H425.309V566.201L429.963 563.452L428.395 560.791ZM428.395 552.338L426.898 549.635L425.309 550.518V552.338H428.395ZM442.37 544.577L443.867 547.277L445.457 546.397V544.577H442.37ZM442.37 539.287H445.457V536.198H442.37V539.287ZM428.395 539.287H425.309V542.377H428.395V539.287ZM428.395 531.427V528.338H425.309V531.427H428.395ZM442.37 531.427V534.517H445.457V531.427H442.37ZM442.37 526.286H445.457V524.473L443.873 523.589L442.37 526.286ZM428.395 518.476H425.309V520.289L426.892 521.173L428.395 518.476ZM428.395 510.022L429.957 507.356L425.309 504.628V510.022H428.395ZM444.889 519.711L443.327 522.375L444.867 523.28L446.42 522.393L444.889 519.711ZM462.963 509.38H466.049V504.056L461.432 506.695L462.963 509.38ZM462.963 518.624L464.463 521.324L466.049 520.441V518.624H462.963ZM445.951 526.385V531.427H452.123V526.385H445.951ZM449.037 534.517H462.963V528.338H449.037V534.517ZM459.876 531.427V539.287H466.049V531.427H459.876ZM462.963 536.198H449.037V542.377H462.963V536.198ZM445.951 539.287V544.429H452.123V539.287H445.951ZM447.537 547.129L461.463 554.89L464.463 549.49L450.537 541.728L447.537 547.129ZM459.876 552.19V561.434H466.049V552.19H459.876ZM464.5 558.755L446.426 548.374L443.352 553.732L461.426 564.113L464.5 558.755ZM443.321 548.393L426.827 558.131L429.963 563.452L446.457 553.713L443.321 548.393ZM431.481 560.791V552.338H425.309V560.791H431.481ZM429.892 555.039L443.867 547.277L440.873 541.874L426.898 549.635L429.892 555.039ZM445.457 544.577V539.287H439.284V544.577H445.457ZM442.37 536.198H428.395V542.377H442.37V536.198ZM431.481 539.287V531.427H425.309V539.287H431.481ZM428.395 534.517H442.37V528.338H428.395V534.517ZM445.457 531.427V526.286H439.284V531.427H445.457ZM443.873 523.589L429.898 515.778L426.892 521.173L440.867 528.983L443.873 523.589ZM431.481 518.476V510.022H425.309V518.476H431.481ZM426.833 512.686L443.327 522.375L446.45 517.045L429.957 507.356L426.833 512.686ZM446.42 522.393L464.494 512.061L461.432 506.695L443.358 517.027L446.42 522.393ZM459.876 509.38V518.624H466.049V509.38H459.876ZM461.463 515.923L447.537 523.685L450.537 529.085L464.463 521.324L461.463 515.923ZM456.543 473.805V470.716H453.457V473.805H456.543ZM462.963 473.805H466.049V470.716H462.963V473.805ZM462.963 500.599V503.688H466.049V500.599H462.963ZM428.395 500.599H425.309V503.688H428.395V500.599ZM428.395 474.448V471.358H425.309V474.448H428.395ZM434.815 474.448H437.901V471.358H434.815V474.448ZM434.815 492.64H431.728V495.73H434.815V492.64ZM442.321 492.64V495.73H445.407V492.64H442.321ZM442.321 476.574V473.484H439.234V476.574H442.321ZM448.543 476.574H451.63V473.484H448.543V476.574ZM448.543 492.64H445.457V495.73H448.543V492.64ZM456.543 492.64V495.73H459.63V492.64H456.543ZM456.543 476.895H462.963V470.716H456.543V476.895ZM459.876 473.805V500.599H466.049V473.805H459.876ZM462.963 497.509H428.395V503.688H462.963V497.509ZM431.481 500.599V474.448H425.309V500.599H431.481ZM428.395 477.538H434.815V471.358H428.395V477.538ZM431.728 474.448V492.64H437.901V474.448H431.728ZM434.815 495.73H442.321V489.55H434.815V495.73ZM445.407 492.64V476.574H439.234V492.64H445.407ZM442.321 479.663H448.543V473.484H442.321V479.663ZM445.457 476.574V492.64H451.63V476.574H445.457ZM448.543 495.73H456.543V489.55H448.543V495.73ZM459.63 492.64V473.805H453.457V492.64H459.63ZM428.395 430.655V427.566H425.309V430.655H428.395ZM462.963 430.655H466.049V427.566H462.963V430.655ZM462.963 438.664V441.753H466.049V438.664H462.963ZM448.79 438.664V435.574H445.704V438.664H448.79ZM448.79 454.384H445.704V457.473H448.79V454.384ZM462.963 454.384H466.049V451.294H462.963V454.384ZM462.963 462.392V465.482H466.049V462.392H462.963ZM428.395 462.392H425.309V465.482H428.395V462.392ZM428.395 454.384V451.294H425.309V454.384H428.395ZM442.025 454.384V457.473H445.111V454.384H442.025ZM442.025 438.664H445.111V435.574H442.025V438.664ZM428.395 438.664H425.309V441.753H428.395V438.664ZM428.395 433.745H462.963V427.566H428.395V433.745ZM459.876 430.655V438.664H466.049V430.655H459.876ZM462.963 435.574H448.79V441.753H462.963V435.574ZM445.704 438.664V454.384H451.876V438.664H445.704ZM448.79 457.473H462.963V451.294H448.79V457.473ZM459.876 454.384V462.392H466.049V454.384H459.876ZM462.963 459.303H428.395V465.482H462.963V459.303ZM431.481 462.392V454.384H425.309V462.392H431.481ZM428.395 457.473H442.025V451.294H428.395V457.473ZM445.111 454.384V438.664H438.938V454.384H445.111ZM442.025 435.574H428.395V441.753H442.025V435.574ZM431.481 438.664V430.655H425.309V438.664H431.481ZM428.395 417.042H425.309V420.132H428.395V417.042ZM428.395 409.083V405.994H425.309V409.083H428.395ZM450.913 409.083V412.173H460.352L452.738 406.59L450.913 409.083ZM428.395 392.572H425.309V394.139L426.571 395.065L428.395 392.572ZM428.395 385.058V381.968H425.309V385.058H428.395ZM462.963 385.058H466.049V381.968H462.963V385.058ZM462.963 392.968V396.057H466.049V392.968H462.963ZM440.494 392.968V389.878H431.074L438.667 395.458L440.494 392.968ZM462.963 409.479H466.049V407.912L464.79 406.988L462.963 409.479ZM462.963 417.042V420.132H466.049V417.042H462.963ZM431.481 417.042V409.083H425.309V417.042H431.481ZM428.395 412.173H450.913V405.994H428.395V412.173ZM452.738 406.59L430.219 390.079L426.571 395.065L449.089 411.577L452.738 406.59ZM431.481 392.572V385.058H425.309V392.572H431.481ZM428.395 388.148H462.963V381.968H428.395V388.148ZM459.876 385.058V392.968H466.049V385.058H459.876ZM462.963 389.878H440.494V396.057H462.963V389.878ZM438.667 395.458L461.136 411.969L464.79 406.988L442.321 390.477L438.667 395.458ZM459.876 409.479V417.042H466.049V409.479H459.876ZM462.963 413.953H428.395V420.132H462.963V413.953ZM456.543 344.704V341.614H453.457V344.704H456.543ZM462.963 344.704H466.049V341.614H462.963V344.704ZM462.963 371.498V374.587H466.049V371.498H462.963ZM428.395 371.498H425.309V374.587H428.395V371.498ZM428.395 345.347V342.257H425.309V345.347H428.395ZM434.815 345.347H437.901V342.257H434.815V345.347ZM434.815 363.539H431.728V366.628H434.815V363.539ZM442.321 363.539V366.628H445.407V363.539H442.321ZM442.321 347.472V344.383H439.234V347.472H442.321ZM448.543 347.472H451.63V344.383H448.543V347.472ZM448.543 363.539H445.457V366.628H448.543V363.539ZM456.543 363.539V366.628H459.63V363.539H456.543ZM456.543 347.794H462.963V341.614H456.543V347.794ZM459.876 344.704V371.498H466.049V344.704H459.876ZM462.963 368.408H428.395V374.587H462.963V368.408ZM431.481 371.498L431.481 345.347H425.309L425.309 371.498H431.481ZM428.395 348.436H434.815V342.257H428.395L428.395 348.436ZM431.728 345.347V363.539H437.901V345.347H431.728ZM434.815 366.628H442.321V360.449H434.815V366.628ZM445.407 363.539V347.472H439.234V363.539H445.407ZM442.321 350.562H448.543V344.383H442.321V350.562ZM445.457 347.472V363.539H451.63V347.472H445.457ZM448.543 366.628H456.543V360.449H448.543V366.628ZM459.63 363.539V344.704H453.457V363.539H459.63ZM461.284 307.576L463.994 309.059L464.012 309.022L461.284 307.576ZM454.913 314.299L456.481 316.962L456.503 316.95L456.521 316.937L454.913 314.299ZM436.494 314.299L434.901 316.947L434.91 316.953L436.494 314.299ZM430.123 307.576L432.846 306.12L432.839 306.108L430.123 307.576ZM429.383 289.829L432.21 291.071L432.216 291.055L429.383 289.829ZM433.926 283.699L436.194 281.604L434.204 279.448L431.95 281.326L433.926 283.699ZM438.667 288.84L440.688 291.176L443.096 289.09L440.935 286.745L438.667 288.84ZM436.049 303.275L438.756 301.789L438.744 301.77L438.731 301.749L436.049 303.275ZM439.951 307.23L438.426 309.918L438.444 309.927L438.466 309.939L439.951 307.23ZM451.407 307.23L452.892 309.939L452.913 309.927L452.932 309.918L451.407 307.23ZM455.358 303.275L458.04 304.804L458.052 304.783L458.065 304.764L455.358 303.275ZM452.642 288.84L450.373 286.745L448.2 289.103L450.636 291.188L452.642 288.84ZM457.383 283.699L459.339 281.311L457.089 279.463L455.114 281.604L457.383 283.699ZM461.975 289.829L459.142 291.055L461.975 289.829ZM460.469 297.985C460.469 301.053 459.815 303.748 458.555 306.133L464.012 309.022C465.781 305.669 466.642 301.971 466.642 297.985H460.469ZM458.574 306.096C457.281 308.466 455.534 310.301 453.305 311.663L456.521 316.937C459.691 315.003 462.191 312.358 463.994 309.059L458.574 306.096ZM453.346 311.639C451.123 312.952 448.596 313.631 445.679 313.631V319.811C449.611 319.811 453.238 318.878 456.481 316.962L453.346 311.639ZM445.679 313.631C442.762 313.631 440.256 312.952 438.077 311.648L434.91 316.953C438.129 318.878 441.75 319.811 445.679 319.811V313.631ZM438.086 311.654C435.833 310.295 434.099 308.466 432.846 306.12L427.401 309.034C429.176 312.355 431.688 315.009 434.901 316.947L438.086 311.654ZM432.839 306.108C431.555 303.732 430.889 301.032 430.889 297.936H424.716C424.716 301.962 425.596 305.685 427.407 309.046L432.839 306.108ZM430.889 297.936C430.889 295.304 431.349 293.033 432.21 291.071L426.555 288.59C425.309 291.438 424.716 294.571 424.716 297.936H430.889ZM432.216 291.055C433.083 289.047 434.312 287.4 435.901 286.075L431.95 281.326C429.589 283.294 427.79 285.735 426.549 288.602L432.216 291.055ZM431.657 285.797L436.398 290.938L440.935 286.745L436.194 281.604L431.657 285.797ZM436.645 286.504C433.296 289.409 431.531 293.15 431.531 297.541H437.704C437.704 295.01 438.639 292.952 440.688 291.176L436.645 286.504ZM431.531 297.541C431.531 300.161 432.12 302.608 433.367 304.804L438.731 301.749C438.071 300.584 437.704 299.209 437.704 297.541H431.531ZM433.342 304.764C434.543 306.949 436.253 308.682 438.426 309.918L441.475 304.545C440.29 303.868 439.398 302.963 438.756 301.789L433.342 304.764ZM438.466 309.939C440.651 311.141 443.08 311.704 445.679 311.704V305.524C443.997 305.524 442.608 305.166 441.435 304.523L438.466 309.939ZM445.679 311.704C448.275 311.704 450.707 311.141 452.892 309.939L449.923 304.523C448.75 305.166 447.361 305.524 445.679 305.524V311.704ZM452.932 309.918C455.096 308.685 456.812 306.967 458.04 304.804L452.676 301.749C451.994 302.947 451.077 303.865 449.883 304.545L452.932 309.918ZM458.065 304.764C459.262 302.574 459.827 300.142 459.827 297.541H453.654C453.654 299.227 453.296 300.615 452.651 301.789L458.065 304.764ZM459.827 297.541C459.827 293.138 458.034 289.393 454.648 286.492L450.636 291.188C452.713 292.968 453.654 295.026 453.654 297.541H459.827ZM454.91 290.938L459.651 285.797L455.114 281.604L450.373 286.745L454.91 290.938ZM455.426 286.09C457.046 287.419 458.281 289.059 459.142 291.055L464.809 288.602C463.565 285.723 461.738 283.279 459.339 281.311L455.426 286.09ZM459.142 291.055C460.009 293.061 460.469 295.356 460.469 297.985H466.642C466.642 294.621 466.049 291.476 464.809 288.602L459.142 291.055ZM455.555 250.782L454.376 247.927L452.469 248.715V250.782H455.555ZM455.555 266.848H452.469V268.912L454.376 269.703L455.555 266.848ZM462.963 269.913H466.049V267.846L464.142 267.058L462.963 269.913ZM462.963 278.119L461.707 280.94L466.049 282.877V278.119H462.963ZM428.395 262.695H425.309V264.701L427.139 265.516L428.395 262.695ZM428.395 254.786L427.136 251.965L425.309 252.781V254.786H428.395ZM462.963 239.313H466.049V234.546L461.704 236.492L462.963 239.313ZM462.963 247.717L464.142 250.572L466.049 249.781V247.717H462.963ZM449.481 253.303H452.568V248.678L448.299 250.448L449.481 253.303ZM436.247 258.79L435.065 255.935L428.182 258.79L435.065 261.645L436.247 258.79ZM449.481 264.277L448.299 267.132L452.568 268.899V264.277H449.481ZM452.469 250.782V266.848H458.642V250.782H452.469ZM454.376 269.703L461.784 272.768L464.142 267.058L456.734 263.993L454.376 269.703ZM459.876 269.913V278.119H466.049V269.913H459.876ZM464.219 275.295L429.651 259.871L427.139 265.516L461.707 280.94L464.219 275.295ZM431.481 262.695V254.786H425.309V262.695H431.481ZM429.654 257.607L464.222 242.134L461.704 236.492L427.136 251.965L429.654 257.607ZM459.876 239.313V247.717H466.049V239.313H459.876ZM461.784 244.862L454.376 247.927L456.734 253.637L464.142 250.572L461.784 244.862ZM448.299 250.448L435.065 255.935L437.429 261.645L450.663 256.158L448.299 250.448ZM435.065 261.645L448.299 267.132L450.663 261.422L437.429 255.935L435.065 261.645ZM452.568 264.277V253.303H446.395V264.277H452.568ZM428.395 229.781H425.309V232.871H428.395V229.781ZM428.395 221.822V218.733H425.309V221.822H428.395ZM450.913 221.822V224.912H460.352L452.738 219.329L450.913 221.822ZM428.395 205.311H425.309V206.878L426.571 207.802L428.395 205.311ZM428.395 197.797V194.708H425.309V197.797H428.395ZM462.963 197.797H466.049V194.708H462.963V197.797ZM462.963 205.707V208.796H466.049V205.707H462.963ZM440.494 205.707V202.617H431.074L438.667 208.197L440.494 205.707ZM462.963 222.218H466.049V220.651L464.79 219.724L462.963 222.218ZM462.963 229.781V232.871H466.049V229.781H462.963ZM418.617 223.404H415.531V226.534L418.657 226.491L418.617 223.404ZM418.617 217.917L418.534 214.827L415.531 214.911V217.917H418.617ZM421.333 210.799L423.676 208.787L423.651 208.756L423.623 208.725L421.333 210.799ZM418.617 209.711H415.531V212.714L418.531 212.797L418.617 209.711ZM418.617 204.224L418.657 201.134L415.531 201.091V204.224H418.617ZM424.247 206.646L421.852 208.592L424.247 206.646ZM431.481 229.781V221.822H425.309V229.781H431.481ZM428.395 224.912H450.913V218.733H428.395V224.912ZM452.738 219.329L430.219 202.818L426.571 207.802L449.089 224.313L452.738 219.329ZM431.481 205.311V197.797H425.309V205.311H431.481ZM428.395 200.887H462.963V194.708H428.395V200.887ZM459.876 197.797V205.707H466.049V197.797H459.876ZM462.963 202.617H440.494V208.796H462.963V202.617ZM438.667 208.197L461.136 224.708L464.79 219.724L442.321 203.213L438.667 208.197ZM459.876 222.218V229.781H466.049V222.218H459.876ZM462.963 226.692H428.395V232.871H462.963V226.692ZM423.086 213.814C423.086 216.644 422.509 218.22 421.861 219.042C421.315 219.737 420.407 220.29 418.577 220.315L418.657 226.491C421.864 226.451 424.734 225.372 426.707 222.87C428.577 220.497 429.259 217.308 429.259 213.814H423.086ZM421.704 223.404V217.917H415.531V223.404H421.704ZM418.7 221.004C420.472 220.954 422.305 220.398 423.639 218.881C424.923 217.42 425.309 215.557 425.309 213.814H419.136C419.136 214.738 418.923 214.892 419.003 214.8C419.046 214.75 419.083 214.738 419.055 214.75C419.009 214.769 418.855 214.818 418.534 214.827L418.7 221.004ZM425.309 213.814C425.309 212.081 424.923 210.242 423.676 208.787L418.991 212.807C418.929 212.736 419.136 212.909 419.136 213.814H425.309ZM423.623 208.725C422.287 207.248 420.488 206.671 418.704 206.621L418.531 212.797C418.836 212.807 418.988 212.853 419.04 212.875C419.077 212.89 419.062 212.89 419.043 212.869L423.623 208.725ZM421.704 209.711V204.224H415.531V209.711H421.704ZM418.577 207.31C420.346 207.335 421.268 207.873 421.852 208.592L426.642 204.696C424.657 202.253 421.827 201.174 418.657 201.134L418.577 207.31ZM421.852 208.592C422.497 209.386 423.086 210.944 423.086 213.814H429.259C429.259 210.286 428.565 207.066 426.642 204.696L421.852 208.592ZM434.913 157.789H438V154.7H434.913V157.789ZM434.913 168.863H431.827V171.952H434.913V168.863ZM462.963 168.863H466.049V165.773H462.963V168.863ZM462.963 176.772V179.862H466.049V176.772H462.963ZM434.913 176.772V173.682H431.827V176.772H434.913ZM434.913 187.796V190.886H438V187.796H434.913ZM428.395 187.796H425.309V190.886H428.395V187.796ZM428.395 157.789V154.7H425.309V157.789H428.395ZM431.827 157.789V168.863H438V157.789H431.827ZM434.913 171.952H462.963V165.773H434.913V171.952ZM459.876 168.863V176.772H466.049V168.863H459.876ZM462.963 173.682H434.913V179.862H462.963V173.682ZM431.827 176.772V187.796H438V176.772H431.827ZM434.913 184.706H428.395V190.886H434.913V184.706ZM431.481 187.796V157.789H425.309V187.796H431.481ZM428.395 160.879H434.913V154.7H428.395V160.879ZM461.234 141.528L463.951 142.996L463.957 142.984L461.234 141.528ZM454.864 148.301L456.432 150.961L456.454 150.949L456.472 150.936L454.864 148.301ZM436.543 148.301L434.95 150.946L434.96 150.952L436.543 148.301ZM430.123 141.528L427.401 142.984L427.407 142.996L430.123 141.528ZM436.543 115.328L438.136 117.973L438.151 117.964L436.543 115.328ZM454.864 115.328L456.472 112.69L456.457 112.68L454.864 115.328ZM461.234 122.101L463.951 120.63L461.234 122.101ZM455.358 126.253L458.052 124.742L458.04 124.721L458.028 124.702L455.358 126.253ZM451.407 122.397L449.883 125.082L449.901 125.095L449.923 125.104L451.407 122.397ZM439.951 122.397L441.435 125.104L441.457 125.095L441.475 125.082L439.951 122.397ZM436.049 126.253L438.719 127.801L438.731 127.783L438.744 127.761L436.049 126.253ZM436.049 137.327L438.744 135.816L438.731 135.794L438.719 135.775L436.049 137.327ZM439.951 141.232L438.426 143.917L438.444 143.929L438.466 143.938L439.951 141.232ZM451.407 141.232L452.892 143.938L452.913 143.929L452.932 143.917L451.407 141.232ZM455.358 137.327L458.028 138.874L458.04 138.856L458.052 138.834L455.358 137.327ZM460.469 131.79C460.469 134.923 459.799 137.66 458.512 140.073L463.957 142.984C465.765 139.594 466.642 135.84 466.642 131.79H460.469ZM458.518 140.058C457.222 142.458 455.475 144.306 453.256 145.662L456.472 150.936C459.651 148.996 462.151 146.33 463.951 142.996L458.518 140.058ZM453.296 145.638C451.071 146.954 448.559 147.634 445.679 147.634V153.813C449.583 153.813 453.191 152.877 456.432 150.961L453.296 145.638ZM445.679 147.634C442.799 147.634 440.309 146.954 438.126 145.647L434.96 150.952C438.176 152.877 441.775 153.813 445.679 153.813V147.634ZM438.136 145.653C435.886 144.297 434.13 142.449 432.839 140.058L427.407 142.996C429.213 146.339 431.734 149.008 434.95 150.946L438.136 145.653ZM432.846 140.073C431.559 137.66 430.889 134.923 430.889 131.79H424.716C424.716 135.84 425.592 139.594 427.401 142.984L432.846 140.073ZM430.889 131.79C430.889 128.657 431.559 125.938 432.839 123.568L427.407 120.63C425.592 123.995 424.716 127.736 424.716 131.79H430.889ZM432.839 123.568C434.13 121.177 435.886 119.329 438.136 117.973L434.95 112.68C431.734 114.621 429.213 117.287 427.407 120.63L432.839 123.568ZM438.151 117.964C440.33 116.635 442.812 115.946 445.679 115.946V109.767C441.762 109.767 438.154 110.725 434.935 112.69L438.151 117.964ZM445.679 115.946C448.546 115.946 451.049 116.635 453.271 117.973L456.457 112.68C453.213 110.725 449.596 109.767 445.679 109.767V115.946ZM453.256 117.964C455.475 119.32 457.222 121.168 458.518 123.568L463.951 120.63C462.151 117.296 459.651 114.63 456.472 112.69L453.256 117.964ZM458.518 123.568C459.799 125.938 460.469 128.657 460.469 131.79H466.642C466.642 127.736 465.765 123.995 463.951 120.63L458.518 123.568ZM459.827 131.79C459.827 129.262 459.253 126.89 458.052 124.742L452.663 127.761C453.309 128.91 453.654 130.23 453.654 131.79H459.827ZM458.028 124.702C456.79 122.564 455.062 120.88 452.892 119.688L449.923 125.104C451.111 125.759 452.018 126.646 452.688 127.801L458.028 124.702ZM452.932 119.709C450.741 118.461 448.293 117.874 445.679 117.874V124.053C447.342 124.053 448.716 124.418 449.883 125.082L452.932 119.709ZM445.679 117.874C443.065 117.874 440.617 118.461 438.426 119.709L441.475 125.082C442.642 124.418 444.015 124.053 445.679 124.053V117.874ZM438.466 119.688C436.287 120.883 434.565 122.583 433.355 124.742L438.744 127.761C439.376 126.627 440.256 125.753 441.435 125.104L438.466 119.688ZM433.379 124.702C432.133 126.856 431.531 129.241 431.531 131.79H437.704C437.704 130.248 438.059 128.944 438.719 127.801L433.379 124.702ZM431.531 131.79C431.531 134.336 432.133 136.724 433.379 138.874L438.719 135.775C438.059 134.632 437.704 133.328 437.704 131.79H431.531ZM433.355 138.834C434.559 140.985 436.268 142.69 438.426 143.917L441.475 138.544C440.275 137.861 439.383 136.959 438.744 135.816L433.355 138.834ZM438.466 143.938C440.651 145.14 443.08 145.706 445.679 145.706V139.526C443.997 139.526 442.608 139.168 441.435 138.522L438.466 143.938ZM445.679 145.706C448.275 145.706 450.707 145.14 452.892 143.938L449.923 138.522C448.75 139.168 447.361 139.526 445.679 139.526V145.706ZM452.932 143.917C455.08 142.693 456.793 141.003 458.028 138.874L452.688 135.775C452.012 136.943 451.092 137.855 449.883 138.544L452.932 143.917ZM458.052 138.834C459.253 136.69 459.827 134.317 459.827 131.79H453.654C453.654 133.347 453.309 134.666 452.663 135.816L458.052 138.834ZM444.938 77.7672L442.167 79.1236L445.645 86.2421L447.898 78.6447L444.938 77.7672ZM448 72.9226L449.913 75.3448L448 72.9226ZM460.395 74.7517L457.904 76.5777L457.917 76.5931L460.395 74.7517ZM462.963 101.743V104.833H466.049V101.743H462.963ZM428.395 101.743H425.309V104.833H428.395V101.743ZM430.716 76.2347L428.176 74.4767L430.716 76.2347ZM441.876 74.1585L443.589 71.588L443.559 71.5662L441.876 74.1585ZM442.716 93.784V96.8737H445.802V93.784H442.716ZM441.679 82.3646L444.114 80.4676L444.092 80.4398L444.071 80.4119L441.679 82.3646ZM435.407 82.4141L437.799 84.3667L437.818 84.3451L437.833 84.3234L435.407 82.4141ZM434.321 93.784H431.234V96.8737H434.321V93.784ZM448.296 93.784H445.21V96.8737H448.296V93.784ZM457.037 93.784V96.8737H460.123V93.784H457.037ZM447.898 78.6447C448.383 77.0134 449.099 75.9937 449.913 75.3448L446.086 70.4972C444.071 72.0945 442.747 74.3037 441.978 76.8867L447.898 78.6447ZM449.913 75.3448C450.707 74.7208 451.747 74.3315 453.234 74.3315V68.1522C450.574 68.1522 448.126 68.8844 446.086 70.4972L449.913 75.3448ZM453.234 74.3315C455.376 74.3315 456.812 75.0823 457.904 76.5777L462.886 72.9257C460.555 69.7402 457.216 68.1522 453.234 68.1522V74.3315ZM457.917 76.5931C459.08 78.1596 459.876 80.7178 459.876 84.688H466.049C466.049 80.0226 465.133 75.9566 462.873 72.9102L457.917 76.5931ZM459.876 84.688V101.743H466.049V84.688H459.876ZM462.963 98.6533H428.395V104.833H462.963V98.6533ZM431.481 101.743V85.6273H425.309V101.743H431.481ZM431.481 85.6273C431.481 81.9506 432.197 79.5252 433.256 77.9897L428.176 74.4767C426.142 77.4274 425.309 81.2615 425.309 85.6273H431.481ZM433.256 77.9897C434.191 76.6364 435.42 75.9628 437.333 75.9628V69.7835C433.518 69.7835 430.336 71.35 428.176 74.4767L433.256 77.9897ZM437.333 75.9628C438.503 75.9628 439.423 76.2471 440.194 76.7476L443.559 71.5662C441.697 70.3551 439.586 69.7835 437.333 69.7835V75.9628ZM440.163 76.7291C440.941 77.2482 441.62 78.0082 442.167 79.1236L447.71 76.4078C446.741 74.4273 445.38 72.7805 443.589 71.588L440.163 76.7291ZM445.802 93.784V86.3193H439.63V93.784H445.802ZM445.802 86.3193C445.802 84.24 445.404 82.1267 444.114 80.4676L439.244 84.2617C439.336 84.3821 439.63 84.9042 439.63 86.3193H445.802ZM444.071 80.4119C442.639 78.6539 440.617 77.9402 438.518 77.9402V84.1196C438.883 84.1196 439.071 84.1782 439.145 84.2091C439.207 84.2369 439.241 84.2617 439.287 84.3173L444.071 80.4119ZM438.518 77.9402C436.383 77.9402 434.383 78.7188 432.981 80.5046L437.833 84.3234C437.895 84.2431 437.938 84.2184 437.981 84.1999C438.037 84.1752 438.194 84.1196 438.518 84.1196V77.9402ZM433.015 80.4614C431.667 82.1174 431.234 84.2307 431.234 86.3193H437.407C437.407 84.9784 437.701 84.4903 437.799 84.3667L433.015 80.4614ZM431.234 86.3193V93.784H437.407V86.3193H431.234ZM434.321 96.8737H442.716V90.6943H434.321V96.8737ZM460.123 84.9847C460.123 82.7817 459.704 80.5602 458.349 78.8424C456.883 76.9855 454.768 76.2595 452.592 76.2595V82.4388C453.012 82.4388 453.238 82.5068 453.336 82.5469C453.417 82.5809 453.46 82.6149 453.503 82.6735C453.63 82.8311 453.951 83.4275 453.951 84.9847H460.123ZM452.592 76.2595C450.426 76.2595 448.342 77.0133 446.917 78.8826C445.611 80.5974 445.21 82.8003 445.21 84.9847H451.383C451.383 83.412 451.697 82.7971 451.824 82.6334C451.867 82.5778 451.895 82.5562 451.947 82.5314C452.018 82.5005 452.21 82.4388 452.592 82.4388V76.2595ZM445.21 84.9847V93.784H451.383V84.9847H445.21ZM448.296 96.8737H457.037V90.6943H448.296V96.8737ZM460.123 93.784V84.9847H453.951V93.784H460.123Z" fill="white" fill-opacity="0.05"/>
</g>
<defs>
<clipPath id="clip0">
<rect width="896" height="500" fill="white" transform="translate(0 896) rotate(-90)"/>
</clipPath>
</defs>
</svg>
