<svg width="500" height="896" viewBox="0 0 500 896" fill="none" xmlns="http://www.w3.org/2000/svg">
<g clip-path="url(#clip0)">
<path d="M498.457 894.455L498.457 1.54492L1.54324 1.54492L1.54324 894.455H498.457Z" fill="#F7F7F7" fill-opacity="0.05" stroke="white" stroke-opacity="0.05"/>
<path d="M450.34 110.642L126.266 110.642V59.6631L450.34 59.6631V110.642ZM126.266 193.335V147.454H450.34V211.41L256.359 263.78H450.34V309.198H126.266V256.828L360.989 193.335L126.266 193.335ZM372.563 339.21C398.797 339.21 418.859 345.544 432.748 358.212C446.945 370.879 454.044 389.572 454.044 414.289C454.044 439.006 446.945 457.699 432.748 470.366C418.859 483.034 398.797 489.368 372.563 489.368H362.378V441.169H375.803C386.915 441.169 394.939 439.006 399.878 434.681C405.124 430.355 407.748 424.022 407.748 415.679C407.748 407.337 405.124 401.004 399.878 396.678C394.939 392.353 386.915 390.19 375.803 390.19C362.223 390.19 350.34 393.743 340.155 400.849C329.97 408.264 318.396 419.233 305.433 433.754C294.322 445.804 284.445 455.536 275.803 462.951C267.47 470.366 257.285 476.7 245.248 481.953C233.211 487.205 219.476 489.831 204.044 489.831C177.809 489.831 157.593 483.343 143.395 470.366C129.507 457.39 122.562 438.543 122.562 413.826C122.562 389.108 129.507 370.262 143.395 357.285C157.593 344.308 177.809 337.82 204.044 337.82H223.952V386.019H200.803C179.815 386.019 169.321 394.824 169.321 412.435C169.321 430.046 179.815 438.852 200.803 438.852C214.384 438.852 226.266 435.144 236.452 427.729C246.637 420.623 258.211 409.809 271.174 395.288C282.285 383.238 292.007 373.506 300.34 366.09C308.982 358.675 319.322 352.341 331.359 347.089C343.396 341.837 357.131 339.21 372.563 339.21ZM313.766 639.998H267.47V570.017H172.562V658.072H126.266L126.266 519.038H450.34L450.34 658.072H404.044L404.044 570.017H313.766V639.998ZM372.563 685.493C398.489 685.493 418.55 692.136 432.748 705.421C446.945 718.707 454.044 737.863 454.044 762.889C454.044 787.915 446.945 807.071 432.748 820.356C418.55 833.642 398.489 840.285 372.563 840.285H204.044C178.118 840.285 158.056 833.642 143.858 820.356C129.661 807.071 122.562 787.915 122.562 762.889C122.562 737.863 129.661 718.707 143.858 705.421C158.056 692.136 178.118 685.493 204.044 685.493H372.563ZM200.803 736.472C179.507 736.472 168.858 745.278 168.858 762.889C168.858 780.5 179.507 789.305 200.803 789.305H375.803C397.1 789.305 407.748 780.5 407.748 762.889C407.748 745.278 397.1 736.472 375.803 736.472H200.803Z" fill="#575555" fill-opacity="0.05"/>
<path d="M450.34 110.642V113.732H453.427V110.642H450.34ZM126.266 110.642H123.179V113.732H126.266V110.642ZM126.266 59.6629V56.5732H123.179V59.6629H126.266ZM450.34 59.6629H453.427V56.5732H450.34V59.6629ZM450.34 107.553L126.266 107.553V113.732L450.34 113.732V107.553ZM129.352 110.642V59.6629H123.179V110.642H129.352ZM126.266 62.7526L450.34 62.7526V56.5732L126.266 56.5732V62.7526ZM447.254 59.6629V110.642H453.427V59.6629H447.254ZM126.266 193.335H123.179V196.425H126.266V193.335ZM126.266 147.454V144.364H123.179V147.454H126.266ZM450.34 147.454H453.427V144.364H450.34V147.454ZM450.34 211.41L451.144 214.393L453.427 213.776V211.41H450.34ZM256.359 263.779L255.555 260.796L256.359 266.869V263.779ZM450.34 263.779H453.427V260.69H450.34V263.779ZM450.34 309.197V312.287H453.427V309.197H450.34ZM126.266 309.197H123.179V312.287H126.266V309.197ZM126.266 256.828L125.46 253.845L123.179 254.462V256.828H126.266ZM360.988 193.335L361.793 196.318L360.988 190.246V193.335ZM129.352 193.335V147.454H123.179V193.335H129.352ZM126.266 150.544H450.34V144.364H126.266V150.544ZM447.254 147.454V211.41H453.427V147.454H447.254ZM449.537 208.427L255.555 260.796L257.162 266.762L451.144 214.393L449.537 208.427ZM256.359 266.869H450.34V260.69H256.359V266.869ZM447.254 263.779V309.197H453.427V263.779H447.254ZM450.34 306.108H126.266V312.287H450.34V306.108ZM129.352 309.197V256.828H123.179V309.197H129.352ZM127.071 259.81L361.793 196.318L360.183 190.353L125.46 253.845L127.071 259.81ZM360.988 190.246L126.266 190.246V196.425L360.988 196.425V190.246ZM432.748 358.212L430.669 360.495L430.694 360.516L432.748 358.212ZM432.748 470.366L430.694 468.058L430.669 468.08L432.748 470.366ZM362.377 489.367H359.291V492.457H362.377V489.367ZM362.377 441.169V438.079H359.291V441.169H362.377ZM399.877 434.681L397.915 432.295L397.879 432.323L397.845 432.354L399.877 434.681ZM399.877 396.678L397.845 399.001L397.879 399.032L397.915 399.063L399.877 396.678ZM340.155 400.849L338.39 398.312L338.365 398.331L338.34 398.349L340.155 400.849ZM305.433 433.754L307.701 435.848L307.717 435.83L307.734 435.811L305.433 433.754ZM275.803 462.951L273.795 460.603L273.773 460.621L273.753 460.64L275.803 462.951ZM245.248 481.952L246.481 484.782L245.248 481.952ZM143.395 470.366L141.29 472.625L141.315 472.646L143.395 470.366ZM143.395 357.285L141.315 355.001L141.29 355.026L143.395 357.285ZM223.951 337.82H227.038V334.73H223.951V337.82ZM223.951 386.019V389.108H227.038V386.019H223.951ZM236.451 427.729L234.687 425.192L234.661 425.211L234.636 425.229L236.451 427.729ZM271.174 395.287L268.906 393.19L268.889 393.208L268.872 393.227L271.174 395.287ZM300.34 366.09L298.332 363.742L298.31 363.761L298.29 363.779L300.34 366.09ZM372.562 342.3C398.333 342.3 417.54 348.519 430.669 360.495L434.826 355.925C420.178 342.566 399.261 336.121 372.562 336.121V342.3ZM430.694 360.516C444.052 372.436 450.958 390.171 450.958 414.289H457.13C457.13 388.969 449.839 369.322 434.801 355.904L430.694 360.516ZM450.958 414.289C450.958 438.404 444.052 456.141 430.694 468.058L434.801 472.671C449.839 459.256 457.13 439.605 457.13 414.289H450.958ZM430.669 468.08C417.54 480.055 398.333 486.278 372.562 486.278V492.457C399.261 492.457 420.178 486.009 434.826 472.649L430.669 468.08ZM372.562 486.278H362.377V492.457H372.562V486.278ZM365.464 489.367V441.169H359.291V489.367H365.464ZM362.377 444.259H375.803V438.079H362.377V444.259ZM375.803 444.259C387.184 444.259 396.131 442.065 401.91 437.004L397.845 432.354C393.747 435.944 386.644 438.079 375.803 438.079V444.259ZM401.839 437.066C407.958 432.02 410.834 424.713 410.834 415.679H404.661C404.661 423.326 402.291 428.687 397.915 432.295L401.839 437.066ZM410.834 415.679C410.834 406.642 407.958 399.335 401.839 394.293L397.915 399.063C402.291 402.669 404.661 408.029 404.661 415.679H410.834ZM401.91 394.351C396.131 389.29 387.184 387.1 375.803 387.1V393.279C386.644 393.279 393.747 395.411 397.845 399.001L401.91 394.351ZM375.803 387.1C361.654 387.1 349.142 390.811 338.39 398.312L341.92 403.382C351.538 396.672 362.792 393.279 375.803 393.279V387.1ZM338.34 398.349C327.909 405.944 316.171 417.088 303.131 431.693L307.734 435.811C320.621 421.376 332.031 410.584 341.97 403.345L338.34 398.349ZM303.165 431.656C292.103 443.653 282.315 453.293 273.795 460.603L277.812 465.296C286.575 457.776 296.54 447.951 307.701 435.848L303.165 431.656ZM273.753 460.64C265.701 467.805 255.805 473.975 244.014 479.119L246.481 484.782C258.764 479.425 269.238 472.924 277.854 465.259L273.753 460.64ZM244.014 479.119C232.428 484.174 219.125 486.741 204.044 486.741V492.921C219.827 492.921 233.993 490.233 246.481 484.782L244.014 479.119ZM204.044 486.741C178.296 486.741 158.926 480.377 145.475 468.083L141.315 472.646C156.259 486.309 177.324 492.921 204.044 492.921V486.741ZM145.5 468.108C132.411 455.876 125.648 437.956 125.648 413.825H119.475C119.475 439.127 126.602 458.9 141.29 472.625L145.5 468.108ZM125.648 413.825C125.648 389.692 132.411 371.772 145.5 359.543L141.29 355.026C126.602 368.747 119.475 388.521 119.475 413.825H125.648ZM145.475 359.565C158.926 347.274 178.296 340.91 204.044 340.91V334.73C177.324 334.73 156.259 341.342 141.315 355.001L145.475 359.565ZM204.044 340.91H223.951V334.73H204.044V340.91ZM220.865 337.82V386.019H227.038V337.82H220.865ZM223.951 382.929H200.803V389.108H223.951V382.929ZM200.803 382.929C189.954 382.929 181.241 385.194 175.21 390.254C169.074 395.402 166.235 402.996 166.235 412.435H172.408C172.408 404.263 174.818 398.646 179.176 394.991C183.636 391.246 190.667 389.108 200.803 389.108V382.929ZM166.235 412.435C166.235 421.874 169.074 429.465 175.21 434.616C181.241 439.677 189.954 441.941 200.803 441.941V435.762C190.667 435.762 183.636 433.624 179.176 429.879C174.818 426.221 172.408 420.607 172.408 412.435H166.235ZM200.803 441.941C214.982 441.941 227.512 438.058 238.266 430.225L234.636 425.229C225.02 432.23 213.785 435.762 200.803 435.762V441.941ZM238.216 430.262C248.676 422.965 260.431 411.956 273.475 397.345L268.872 393.227C255.99 407.658 244.597 418.278 234.687 425.192L238.216 430.262ZM273.441 397.382C284.512 385.376 294.159 375.724 302.391 368.398L298.29 363.779C289.854 371.287 280.057 381.097 268.906 393.19L273.441 397.382ZM302.349 368.435C310.725 361.249 320.794 355.069 332.592 349.919L330.125 344.256C317.85 349.613 307.239 356.101 298.332 363.742L302.349 368.435ZM332.592 349.919C344.178 344.864 357.481 342.3 372.562 342.3V336.121C356.779 336.121 342.613 338.805 330.125 344.256L332.592 349.919ZM313.766 639.997V643.087H316.853V639.997H313.766ZM267.47 639.997H264.383V643.087H267.47V639.997ZM267.47 570.017H270.556V566.927H267.47V570.017ZM172.562 570.017V566.927H169.475V570.017H172.562ZM172.562 658.072V661.162H175.648V658.072H172.562ZM126.266 658.072H123.179V661.162H126.266V658.072ZM126.266 519.037V515.948H123.179V519.037H126.266ZM450.34 519.037H453.427V515.948H450.34V519.037ZM450.34 658.072V661.162H453.427V658.072H450.34ZM404.044 658.072H400.958V661.162H404.044V658.072ZM404.044 570.017H407.13V566.927H404.044V570.017ZM313.766 570.017V566.927H310.68V570.017H313.766ZM313.766 636.908H267.47V643.087H313.766V636.908ZM270.556 639.997V570.017H264.383V639.997H270.556ZM267.47 566.927H172.562V573.106H267.47V566.927ZM169.475 570.017V658.072H175.648V570.017H169.475ZM172.562 654.982H126.266V661.162H172.562V654.982ZM129.352 658.072L129.352 519.037H123.179L123.179 658.072H129.352ZM126.266 522.127H450.34V515.948H126.266L126.266 522.127ZM447.254 519.037L447.254 658.072H453.427L453.427 519.037H447.254ZM450.34 654.982H404.044V661.162H450.34V654.982ZM407.13 658.072L407.13 570.017H400.958L400.958 658.072H407.13ZM404.044 566.927H313.766V573.106H404.044V566.927ZM310.68 570.017V639.997H316.853V570.017H310.68ZM432.748 705.421L434.855 703.162L432.748 705.421ZM432.748 820.356L434.855 822.612L432.748 820.356ZM143.858 820.356L141.75 822.612L143.858 820.356ZM143.858 705.421L141.75 703.162L143.858 705.421ZM372.562 688.582C397.973 688.582 417.183 695.086 430.64 707.676L434.855 703.162C419.917 689.185 399.004 682.403 372.562 682.403V688.582ZM430.64 707.676C444.046 720.223 450.958 738.459 450.958 762.888H457.13C457.13 737.266 449.844 717.189 434.855 703.162L430.64 707.676ZM450.958 762.888C450.958 787.318 444.046 805.554 430.64 818.098L434.855 822.612C449.844 808.588 457.13 788.511 457.13 762.888H450.958ZM430.64 818.098C417.183 830.691 397.973 837.195 372.562 837.195V843.374C399.004 843.374 419.917 836.592 434.855 822.612L430.64 818.098ZM372.562 837.195H204.044V843.374H372.562V837.195ZM204.044 837.195C178.633 837.195 159.423 830.691 145.966 818.098L141.75 822.612C156.688 836.592 177.602 843.374 204.044 843.374V837.195ZM145.966 818.098C132.559 805.554 125.648 787.318 125.648 762.888H119.475C119.475 788.511 126.762 808.588 141.75 822.612L145.966 818.098ZM125.648 762.888C125.648 738.459 132.559 720.223 145.966 707.676L141.75 703.162C126.762 717.189 119.475 737.266 119.475 762.888H125.648ZM145.966 707.676C159.423 695.086 178.633 688.582 204.044 688.582V682.403C177.602 682.403 156.688 689.185 141.75 703.162L145.966 707.676ZM204.044 688.582H372.562V682.403H204.044V688.582ZM200.803 733.382C189.809 733.382 180.988 735.644 174.88 740.692C168.658 745.837 165.772 753.434 165.772 762.888H171.945C171.945 754.732 174.383 749.118 178.812 745.457C183.352 741.703 190.503 739.562 200.803 739.562V733.382ZM165.772 762.888C165.772 772.343 168.658 779.937 174.88 785.081C180.988 790.133 189.809 792.395 200.803 792.395V786.215C190.503 786.215 183.352 784.074 178.812 780.317C174.383 776.656 171.945 771.045 171.945 762.888H165.772ZM200.803 792.395H375.803V786.215H200.803V792.395ZM375.803 792.395C386.799 792.395 395.62 790.133 401.727 785.081C407.948 779.937 410.834 772.343 410.834 762.888H404.661C404.661 771.045 402.224 776.656 397.796 780.317C393.255 784.074 386.104 786.215 375.803 786.215V792.395ZM410.834 762.888C410.834 753.434 407.948 745.837 401.727 740.692C395.62 735.644 386.799 733.382 375.803 733.382V739.562C386.104 739.562 393.255 741.703 397.796 745.457C402.224 749.118 404.661 754.732 404.661 762.888H410.834ZM375.803 733.382H200.803V739.562H375.803V733.382Z" fill="white" fill-opacity="0.05"/>
<path d="M71.6053 105.048H37.0373V97.089H65.0867V81.4677H37.0373V73.5088H71.6053V105.048ZM71.6053 133.548C71.6053 136.613 71.096 139.266 70.0744 141.507C69.0528 143.781 67.6053 145.528 65.7287 146.747C63.8522 147.966 61.63 148.576 59.0621 148.576C56.5281 148.576 54.3059 147.966 52.3954 146.747C50.5188 145.528 49.0713 143.781 48.0497 141.507C47.062 139.266 46.5682 136.613 46.5682 133.548L46.5682 126.578H37.0373V118.57H71.6053V133.548ZM53.0867 133.103C53.0867 135.509 53.596 137.338 54.6176 138.591C55.6701 139.843 57.1516 140.469 59.0621 140.469C61.0034 140.469 62.4849 139.843 63.5065 138.591C64.559 137.338 65.0867 135.509 65.0867 133.103V126.578H53.0867V133.103ZM36.4447 175.796C36.4447 172.204 37.2194 168.958 38.7657 166.058C40.312 163.191 42.4355 160.933 45.1361 159.285C47.8676 157.67 50.9293 156.863 54.3213 156.863C57.7133 156.863 60.7565 157.67 63.4571 159.285C66.1886 160.933 68.3306 163.191 69.8769 166.058C71.4232 168.958 72.1979 172.204 72.1979 175.796C72.1979 179.389 71.4232 182.618 69.8769 185.486C68.3306 188.353 66.1886 190.61 63.4571 192.258C60.7565 193.906 57.7133 194.73 54.3213 194.73C50.9293 194.73 47.8676 193.906 45.1361 192.258C42.4355 190.61 40.312 188.353 38.7657 185.486C37.2194 182.618 36.4447 179.389 36.4447 175.796ZM43.2596 175.796C43.2596 177.84 43.7194 179.685 44.6423 181.333C45.596 182.981 46.9139 184.266 48.5929 185.189C50.2719 186.145 52.1824 186.623 54.3213 186.623C56.4602 186.623 58.3707 186.145 60.0497 185.189C61.7287 184.266 63.0281 182.981 63.9509 181.333C64.9047 179.685 65.3831 177.84 65.3831 175.796C65.3831 173.753 64.9047 171.908 63.9509 170.26C63.0281 168.612 61.7287 167.31 60.0497 166.354C58.3707 165.432 56.4602 164.97 54.3213 164.97C52.1824 164.97 50.2719 165.432 48.5929 166.354C46.9139 167.31 45.596 168.612 44.6423 170.26C43.7194 171.908 43.2596 173.753 43.2596 175.796ZM43.5559 240.569H29.8768V233.154H37.0373V208.733H29.8768V201.318L43.5559 201.367V202.752C43.6207 204.828 45.1361 206.294 48.0991 207.151C51.062 208.008 55.2935 208.535 60.7904 208.733L71.6053 209.129V235.724H43.5559V240.569ZM60.0497 215.802C55.9355 215.637 52.4787 215.291 49.6793 214.764C46.9139 214.237 44.8738 213.429 43.5559 212.342V227.815H65.0867L65.0867 215.951L60.0497 215.802ZM55.062 274.879C54.4355 276.988 53.417 278.603 52.0003 279.724C50.5837 280.844 48.8398 281.404 46.7657 281.404C43.704 281.404 41.3182 280.235 39.6052 277.894C37.8923 275.588 37.0373 272.276 37.0373 267.958V250.903H71.6053V267.019C71.6053 271.04 70.8306 274.17 69.2843 276.411C67.738 278.653 65.5312 279.773 62.667 279.773C60.954 279.773 59.4417 279.345 58.1238 278.488C56.8398 277.631 55.8182 276.428 55.062 274.879ZM57.2843 258.862V266.327C57.2843 268.074 57.6299 269.392 58.3213 270.282C59.0466 271.171 60.0991 271.616 61.4818 271.616C62.8306 271.616 63.8676 271.155 64.5929 270.232C65.3182 269.342 65.6793 268.041 65.6793 266.327V258.862H57.2843ZM42.9633 267.662C42.9633 271.419 44.4447 273.297 47.4077 273.297C50.2719 273.297 51.704 271.419 51.704 267.662V258.862H42.9633V267.662ZM71.6053 292.681V300.64H49.0867L71.6053 317.153V324.667H37.0373V316.757H59.5065L37.0373 300.245V292.681H71.6053ZM50.9633 369.615V364.573H37.0373L37.0373 356.713H50.9633V351.572L37.0373 343.81V334.566L55.1114 344.947L71.6053 335.209V343.662L57.6299 351.423V356.713H71.6053V364.573H57.6299V369.714L71.6053 377.525V385.978L55.1114 376.289L37.0373 386.621V377.376L50.9633 369.615ZM43.4571 422.195H37.0373V395.401H71.6053L71.6053 421.552H65.1855V403.36H57.6793V419.427H51.4571V403.36H43.4571V422.195ZM71.6053 465.345H37.0373V457.337H51.2102L51.2102 441.617H37.0373V433.608H71.6053V441.617H57.9756L57.9756 457.337H71.6053V465.345ZM71.6053 478.958V486.917H49.0867L71.6053 503.428V510.942H37.0373V503.033H59.5065L37.0373 486.522L37.0373 478.958H71.6053ZM43.4571 551.296H37.0373V524.503H71.6053V550.654H65.1855V532.462H57.6793V548.528H51.4571V532.462H43.4571V551.296ZM36.4447 598.015C36.4447 594.487 37.2009 591.292 38.7164 588.425C40.2627 585.588 42.3861 583.348 45.0867 581.702C47.8182 580.086 50.8985 579.279 54.3213 579.279C57.7442 579.279 60.8059 580.086 63.5065 581.702C66.238 583.348 68.3614 585.588 69.8769 588.425C71.4232 591.292 72.1979 594.505 72.1979 598.064C72.1979 601.061 71.6701 603.765 70.6176 606.172C69.5652 608.609 68.0497 610.652 66.0744 612.301L61.3336 607.16C64.0343 604.818 65.3831 601.92 65.3831 598.46C65.3831 596.316 64.9047 594.406 63.9509 592.725C63.0281 591.045 61.7287 589.725 60.0497 588.771C58.3707 587.847 56.4602 587.386 54.3213 587.386C52.1824 587.386 50.2719 587.847 48.5929 588.771C46.9139 589.725 45.596 591.045 44.6423 592.725C43.7194 594.406 43.2596 596.316 43.2596 598.46C43.2596 601.92 44.6268 604.818 47.3583 607.16L42.6176 612.301C40.6083 610.652 39.0775 608.609 38.025 606.172C36.9725 603.731 36.4447 601.012 36.4447 598.015ZM44.4447 645.219V629.152L37.0373 626.088V617.881L71.6053 633.305V641.214L37.0373 656.688V648.284L44.4447 645.219ZM50.5188 642.698L63.7534 637.21L50.5188 631.723V642.698ZM71.6053 666.219L71.6053 674.178H49.0867L71.6053 690.689V698.203H37.0373V690.294H59.5065L37.0373 673.783V666.219H71.6053ZM73.8275 682.186C73.8275 675.859 76.346 672.664 81.3831 672.596V678.083C78.9787 678.151 77.7781 679.517 77.7781 682.186C77.7781 683.506 78.0744 684.51 78.667 685.202C79.2936 685.894 80.1979 686.259 81.3831 686.289V691.777C78.9139 691.746 77.0374 690.936 75.7535 689.354C74.4695 687.773 73.8275 685.384 73.8275 682.186ZM65.0867 738.211V727.138H37.0373V719.228H65.0867V708.204H71.6053V738.211H65.0867ZM36.4447 764.211C36.4447 760.62 37.2194 757.373 38.7657 754.472C40.312 751.605 42.4355 749.349 45.1361 747.7C47.8676 746.087 50.9293 745.277 54.3213 745.277C57.7133 745.277 60.7565 746.087 63.4571 747.7C66.1886 749.349 68.3306 751.605 69.8769 754.472C71.4232 757.373 72.1979 760.62 72.1979 764.211C72.1979 767.804 71.4232 771.033 69.8769 773.9C68.3306 776.767 66.1886 779.026 63.4571 780.672C60.7565 782.322 57.7133 783.144 54.3213 783.144C50.9293 783.144 47.8676 782.322 45.1361 780.672C42.4355 779.026 40.312 776.767 38.7657 773.9C37.2194 771.033 36.4447 767.804 36.4447 764.211ZM43.2596 764.211C43.2596 766.256 43.7194 768.1 44.6423 769.747C45.596 771.397 46.9139 772.682 48.5929 773.603C50.2719 774.561 52.1824 775.037 54.3213 775.037C56.4602 775.037 58.3707 774.561 60.0497 773.603C61.7287 772.682 63.0281 771.397 63.9509 769.747C64.9047 768.1 65.3831 766.256 65.3831 764.211C65.3831 762.168 64.9047 760.324 63.9509 758.674C63.0281 757.027 61.7287 755.726 60.0497 754.769C58.3707 753.848 56.4602 753.384 54.3213 753.384C52.1824 753.384 50.2719 753.848 48.5929 754.769C46.9139 755.726 45.596 757.027 44.6423 758.674C43.7194 760.324 43.2596 762.168 43.2596 764.211ZM55.062 818.233C54.4355 820.343 53.417 821.956 52.0003 823.078C50.5837 824.199 48.8398 824.759 46.7657 824.759C43.704 824.759 41.3182 823.588 39.6052 821.249C37.8923 818.941 37.0373 815.629 37.0373 811.312V794.258H71.6053V810.373C71.6053 814.393 70.8306 817.526 69.2843 819.766C67.738 822.006 65.5312 823.127 62.667 823.127C60.954 823.127 59.4417 822.698 58.1238 821.842C56.8398 820.986 55.8182 819.781 55.062 818.233ZM57.2843 802.216V809.681C57.2843 811.427 57.6299 812.746 58.3213 813.636C59.0466 814.526 60.0991 814.971 61.4818 814.971C62.8306 814.971 63.8676 814.51 64.5929 813.586C65.3182 812.697 65.6793 811.396 65.6793 809.681V802.216H57.2843ZM42.9633 811.016C42.9633 814.773 44.4447 816.651 47.4077 816.651C50.2719 816.651 51.704 814.773 51.704 811.016V802.216H42.9633V811.016Z" fill="#575555" fill-opacity="0.05"/>
<path d="M71.605 105.048V108.137H74.6915V105.048H71.605ZM37.0372 105.048H33.9507V108.137H37.0372V105.048ZM37.0372 97.0888V93.9992H33.9507V97.0888H37.0372ZM65.0865 97.0888V100.178H68.1729V97.0888H65.0865ZM65.0865 81.4676H68.1729V78.3779H65.0865V81.4676ZM37.0372 81.4676H33.9507V84.5572H37.0372V81.4676ZM37.0372 73.5086V70.4189H33.9507V73.5086H37.0372ZM71.605 73.5086H74.6915V70.4189H71.605V73.5086ZM71.605 101.958H37.0372V108.137H71.605V101.958ZM40.1236 105.048V97.0888H33.9507V105.048H40.1236ZM37.0372 100.178H65.0865V93.9992H37.0372V100.178ZM68.1729 97.0888V81.4676H62.0001V97.0888H68.1729ZM65.0865 78.3779H37.0372V84.5572H65.0865V78.3779ZM40.1236 81.4676V73.5086H33.9507V81.4676H40.1236ZM37.0372 76.5983H71.605V70.4189H37.0372V76.5983ZM68.5186 73.5086V105.048H74.6915V73.5086H68.5186ZM70.0742 141.507L67.2656 140.225L67.2594 140.241L70.0742 141.507ZM52.3952 146.747L50.7162 149.339L50.7347 149.352L52.3952 146.747ZM48.0495 141.507L45.2254 142.754L45.2347 142.773L48.0495 141.507ZM46.568 126.578H49.6544V123.488H46.568V126.578ZM37.0372 126.578H33.9507L33.9507 129.667H37.0372L37.0372 126.578ZM37.0372 118.569V115.48H33.9507V118.569H37.0372ZM71.605 118.569H74.6915V115.48H71.605V118.569ZM54.6174 138.59L52.2254 140.543L52.2408 140.562L52.2563 140.58L54.6174 138.59ZM63.5063 138.59L61.1452 136.6L61.1297 136.619L61.1143 136.637L63.5063 138.59ZM65.0865 126.578H68.1729V123.488H65.0865V126.578ZM53.0865 126.578V123.488H50.0001V126.578H53.0865ZM68.5186 133.548C68.5186 136.276 68.065 138.472 67.2656 140.225L72.8828 142.789C74.1267 140.059 74.6915 136.95 74.6915 133.548H68.5186ZM67.2594 140.241C66.4538 142.036 65.3705 143.295 64.0495 144.155L67.4075 149.339C69.8396 147.76 71.6544 145.525 72.889 142.773L67.2594 140.241ZM64.0495 144.155C62.7439 145.004 61.1236 145.486 59.0619 145.486V151.666C62.1359 151.666 64.96 150.929 67.4075 149.339L64.0495 144.155ZM59.0619 145.486C57.0433 145.486 55.4106 145.008 54.0557 144.142L50.7347 149.352C53.1977 150.925 56.0125 151.666 59.0619 151.666V145.486ZM54.0742 144.155C52.7532 143.295 51.6699 142.036 50.8643 140.241L45.2347 142.773C46.4693 145.525 48.2841 147.76 50.7162 149.339L54.0742 144.155ZM50.8736 140.26C50.0958 138.497 49.6544 136.288 49.6544 133.548H43.4816C43.4816 136.938 44.0279 140.034 45.2254 142.754L50.8736 140.26ZM49.6544 133.548L49.6544 126.578H43.4816L43.4816 133.548H49.6544ZM46.568 123.488H37.0372L37.0372 129.667H46.568L46.568 123.488ZM40.1236 126.578V118.569H33.9507V126.578H40.1236ZM37.0372 121.659H71.605V115.48H37.0372V121.659ZM68.5186 118.569V133.548H74.6915V118.569H68.5186ZM50.0001 133.103C50.0001 135.886 50.5835 138.526 52.2254 140.543L57.0094 136.637C56.6112 136.149 56.1729 135.132 56.1729 133.103H50.0001ZM52.2563 140.58C53.997 142.65 56.4106 143.558 59.0619 143.558V137.379C57.8921 137.379 57.3458 137.035 56.9785 136.6L52.2563 140.58ZM59.0619 143.558C61.7223 143.558 64.1699 142.662 65.8983 140.543L61.1143 136.637C60.7995 137.023 60.2841 137.379 59.0619 137.379V143.558ZM65.8674 140.58C67.5649 138.561 68.1729 135.905 68.1729 133.103H62.0001C62.0001 135.113 61.5526 136.115 61.1452 136.6L65.8674 140.58ZM68.1729 133.103V126.578H62.0001V133.103H68.1729ZM65.0865 123.488H53.0865V129.667H65.0865V123.488ZM50.0001 126.578L50.0001 133.103H56.1729V126.578H50.0001ZM38.7655 166.058L36.0495 164.589L36.0433 164.602L38.7655 166.058ZM45.1359 159.285L43.568 156.625L43.5464 156.636L43.5279 156.647L45.1359 159.285ZM63.4569 159.285L65.0495 156.639L65.0402 156.633L63.4569 159.285ZM69.8767 166.058L72.5989 164.602L72.5927 164.589L69.8767 166.058ZM63.4569 192.258L61.8643 189.611L61.8489 189.62L63.4569 192.258ZM45.1359 192.258L43.5279 194.896L43.5433 194.905L45.1359 192.258ZM38.7655 185.485L36.0495 186.954L38.7655 185.485ZM44.6421 181.333L41.9477 182.843L41.96 182.863L41.9723 182.883L44.6421 181.333ZM48.5927 185.189L50.1174 182.503L50.0989 182.492L50.0773 182.48L48.5927 185.189ZM60.0495 185.189L58.565 182.48L58.5433 182.492L58.5248 182.503L60.0495 185.189ZM63.9507 181.333L61.281 179.783L61.2686 179.803L61.2563 179.823L63.9507 181.333ZM63.9507 170.26L61.2563 171.769L61.2686 171.79L61.281 171.81L63.9507 170.26ZM60.0495 166.354L61.5742 163.668L61.5557 163.657L61.5341 163.646L60.0495 166.354ZM48.5927 166.354L47.1081 163.646L47.0865 163.657L47.068 163.668L48.5927 166.354ZM44.6421 170.26L41.9723 168.71L41.96 168.73L41.9477 168.75L44.6421 170.26ZM39.531 175.796C39.531 172.664 40.2007 169.925 41.4878 167.513L36.0433 164.602C34.2347 167.991 33.3581 171.744 33.3581 175.796H39.531ZM41.4816 167.526C42.7779 165.125 44.5248 163.278 46.744 161.923L43.5279 156.647C40.3489 158.588 37.8489 161.256 36.0495 164.589L41.4816 167.526ZM46.7038 161.946C48.9291 160.631 51.4415 159.953 54.3211 159.953L54.3211 153.773C50.4168 153.773 46.8088 154.709 43.568 156.625L46.7038 161.946ZM54.3211 159.953C57.2008 159.953 59.6915 160.631 61.8736 161.937L65.0402 156.633C61.8242 154.709 58.2254 153.773 54.3211 153.773L54.3211 159.953ZM61.8643 161.932C64.1143 163.288 65.8705 165.135 67.1606 167.526L72.5927 164.589C70.7872 161.246 68.2656 158.578 65.0495 156.639L61.8643 161.932ZM67.1544 167.513C68.4415 169.925 69.1112 172.664 69.1112 175.796H75.2841C75.2841 171.744 74.4075 167.991 72.5989 164.602L67.1544 167.513ZM69.1112 175.796C69.1112 178.929 68.4415 181.646 67.1606 184.017L72.5927 186.954C74.4075 183.591 75.2841 179.848 75.2841 175.796H69.1112ZM67.1606 184.017C65.8705 186.409 64.1143 188.255 61.8643 189.611L65.0495 194.905C68.2656 192.965 70.7872 190.297 72.5927 186.954L67.1606 184.017ZM61.8489 189.62C59.6699 190.951 57.1884 191.64 54.3211 191.64V197.819C58.2378 197.819 61.8458 196.861 65.0649 194.896L61.8489 189.62ZM54.3211 191.64C51.4538 191.64 48.9507 190.951 46.7285 189.611L43.5433 194.905C46.7872 196.861 50.4045 197.819 54.3211 197.819V191.64ZM46.744 189.62C44.5248 188.265 42.7779 186.418 41.4816 184.017L36.0495 186.954C37.8489 190.287 40.3489 192.955 43.5279 194.896L46.744 189.62ZM41.4816 184.017C40.2007 181.646 39.531 178.929 39.531 175.796H33.3581C33.3581 179.848 34.2347 183.591 36.0495 186.954L41.4816 184.017ZM40.173 175.796C40.173 178.324 40.747 180.696 41.9477 182.843L47.3366 179.823C46.6915 178.674 46.3458 177.356 46.3458 175.796H40.173ZM41.9723 182.883C43.21 185.021 44.9384 186.706 47.1081 187.897L50.0773 182.48C48.889 181.827 47.9816 180.941 47.3118 179.783L41.9723 182.883ZM47.068 187.875C49.2594 189.123 51.7069 189.712 54.3211 189.712V183.533C52.6575 183.533 51.2841 183.166 50.1174 182.503L47.068 187.875ZM54.3211 189.712C56.9353 189.712 59.3828 189.123 61.5742 187.875L58.5248 182.503C57.3582 183.166 55.9847 183.533 54.3211 183.533V189.712ZM61.5341 187.897C63.7131 186.7 65.4353 185.003 66.6452 182.843L61.2563 179.823C60.6236 180.958 59.744 181.832 58.565 182.48L61.5341 187.897ZM66.6205 182.883C67.8674 180.73 68.4693 178.343 68.4693 175.796H62.2964C62.2964 177.336 61.9415 178.64 61.281 179.783L66.6205 182.883ZM68.4693 175.796C68.4693 173.249 67.8674 170.862 66.6205 168.71L61.281 171.81C61.9415 172.953 62.2964 174.256 62.2964 175.796H68.4693ZM66.6452 168.75C65.4415 166.599 63.7316 164.896 61.5742 163.668L58.5248 169.04C59.7254 169.724 60.6174 170.625 61.2563 171.769L66.6452 168.75ZM61.5341 163.646C59.3489 162.445 56.9199 161.88 54.3211 161.88V168.06C56.0032 168.06 57.3921 168.418 58.565 169.063L61.5341 163.646ZM54.3211 161.88C51.7254 161.88 49.2933 162.445 47.1081 163.646L50.0773 169.063C51.2501 168.418 52.639 168.06 54.3211 168.06V161.88ZM47.068 163.668C44.9199 164.89 43.2069 166.581 41.9723 168.71L47.3118 171.81C47.9878 170.643 48.9075 169.73 50.1174 169.04L47.068 163.668ZM41.9477 168.75C40.747 170.896 40.173 173.269 40.173 175.796H46.3458C46.3458 174.237 46.6915 172.919 47.3366 171.769L41.9477 168.75ZM43.5557 240.569V243.658H46.6421V240.569H43.5557ZM29.8766 240.569H26.7902V243.658H29.8766V240.569ZM29.8766 233.154V230.064H26.7902V233.154H29.8766ZM37.0372 233.154V236.243H40.1236V233.154H37.0372ZM37.0372 208.733H40.1236V205.643H37.0372V208.733ZM29.8766 208.733H26.7902V211.823H29.8766V208.733ZM29.8766 201.318L29.889 198.228L26.7902 198.217V201.318H29.8766ZM43.5557 201.367H46.6421V198.289L43.568 198.277L43.5557 201.367ZM43.5557 202.751H40.4693V202.8L40.4724 202.849L43.5557 202.751ZM48.0989 207.151L48.9569 204.182L48.0989 207.151ZM60.7902 208.733L60.9044 205.645H60.9013L60.7902 208.733ZM71.605 209.128H74.6915V206.149L71.7192 206.041L71.605 209.128ZM71.605 235.724V238.814H74.6915V235.724H71.605ZM43.5557 235.724V232.634H40.4693V235.724H43.5557ZM60.0495 215.802L59.926 218.889L59.96 218.89L60.0495 215.802ZM49.6791 214.764L49.102 217.799L49.1081 217.8L49.6791 214.764ZM43.5557 212.342L45.5186 209.958L40.4693 205.787V212.342H43.5557ZM43.5557 227.815H40.4693V230.904H43.5557V227.815ZM65.0865 227.815V230.904H68.1729V227.815H65.0865ZM65.0865 215.95H68.1729L68.1729 212.95L65.1761 212.862L65.0865 215.95ZM43.5557 237.479H29.8766V243.658H43.5557V237.479ZM32.9631 240.569V233.154H26.7902V240.569H32.9631ZM29.8766 236.243H37.0372V230.064H29.8766V236.243ZM40.1236 233.154V208.733H33.9507V233.154H40.1236ZM37.0372 205.643H29.8766V211.823H37.0372V205.643ZM32.9631 208.733V201.318H26.7902V208.733H32.9631ZM29.8643 204.407L43.5433 204.456L43.568 198.277L29.889 198.228L29.8643 204.407ZM40.4693 201.367V202.751H46.6421V201.367H40.4693ZM40.4724 202.849C40.531 204.704 41.2717 206.347 42.5958 207.629C43.8427 208.838 45.4847 209.611 47.2409 210.119L48.9569 204.182C47.7501 203.834 47.1513 203.445 46.8859 203.188C46.6976 203.003 46.6482 202.875 46.639 202.653L40.4724 202.849ZM47.2409 210.119C50.568 211.08 55.0927 211.62 60.6791 211.82L60.9013 205.645C55.4908 205.45 51.5557 204.935 48.9569 204.182L47.2409 210.119ZM60.676 211.82L71.4908 212.216L71.7192 206.041L60.9044 205.645L60.676 211.82ZM68.5186 209.128V235.724H74.6915V209.128H68.5186ZM71.605 232.634H43.5557V238.814H71.605V232.634ZM40.4693 235.724V240.569H46.6421V235.724H40.4693ZM60.173 212.715C56.1483 212.554 52.852 212.218 50.2501 211.727L49.1081 217.8C52.102 218.365 55.7193 218.721 59.926 218.889L60.173 212.715ZM50.2563 211.729C47.7069 211.243 46.2563 210.567 45.5186 209.958L41.5927 214.725C43.4878 216.291 46.1205 217.23 49.102 217.799L50.2563 211.729ZM40.4693 212.342V227.815H46.6421V212.342H40.4693ZM43.5557 230.904H65.0865V224.725H43.5557V230.904ZM68.1729 227.815V215.95H62.0001V227.815H68.1729ZM65.1761 212.862L60.139 212.714L59.96 218.89L64.997 219.038L65.1761 212.862ZM55.0618 274.879L57.8335 273.521L54.355 266.405L52.102 273.999L55.0618 274.879ZM52.0001 279.723L50.0865 277.3L52.0001 279.723ZM39.6051 277.894L42.0958 276.069L42.0834 276.052L39.6051 277.894ZM37.0372 250.903V247.813H33.9507V250.903H37.0372ZM71.605 250.903H74.6915V247.813H71.605V250.903ZM69.2841 276.411L71.8242 278.168L69.2841 276.411ZM58.1236 278.487L56.4106 281.058L56.4415 281.078L58.1236 278.487ZM57.2841 258.862V255.772H54.1976V258.862H57.2841ZM58.3211 270.281L55.8859 272.178L55.9075 272.206L55.9291 272.233L58.3211 270.281ZM64.5927 270.232L62.2007 268.28L62.1822 268.301L62.1668 268.323L64.5927 270.232ZM65.6791 258.862H68.7655V255.772H65.6791V258.862ZM51.7038 258.862H54.7902V255.772H51.7038V258.862ZM42.9631 258.862V255.772H39.8767V258.862H42.9631ZM52.102 273.999C51.6174 275.633 50.9013 276.653 50.0865 277.3L53.9137 282.147C55.9291 280.553 57.2532 278.342 58.0217 275.758L52.102 273.999ZM50.0865 277.3C49.2933 277.926 48.2532 278.314 46.7655 278.314V284.494C49.426 284.494 51.8736 283.762 53.9137 282.147L50.0865 277.3ZM46.7655 278.314C44.6236 278.314 43.1884 277.563 42.0958 276.069L37.1143 279.72C39.4445 282.906 42.784 284.494 46.7655 284.494V278.314ZM42.0834 276.052C40.9199 274.485 40.1236 271.928 40.1236 267.958H33.9507C33.9507 272.623 34.8674 276.69 37.1267 279.737L42.0834 276.052ZM40.1236 267.958V250.903H33.9507V267.958H40.1236ZM37.0372 253.993H71.605V247.813H37.0372V253.993ZM68.5186 250.903V267.019H74.6915V250.903H68.5186ZM68.5186 267.019C68.5186 270.695 67.8026 273.122 66.7439 274.654L71.8242 278.168C73.8581 275.219 74.6915 271.384 74.6915 267.019H68.5186ZM66.7439 274.654C65.8088 276.01 64.5804 276.683 62.6668 276.683V282.862C66.4816 282.862 69.6637 281.294 71.8242 278.168L66.7439 274.654ZM62.6668 276.683C61.497 276.683 60.5773 276.399 59.8057 275.897L56.4415 281.078C58.3026 282.29 60.4137 282.862 62.6668 282.862V276.683ZM59.8365 275.917C59.0587 275.397 58.3798 274.637 57.8335 273.521L52.2902 276.237C53.2594 278.218 54.6205 279.864 56.4106 281.058L59.8365 275.917ZM54.1976 258.862V266.327H60.3705V258.862H54.1976ZM54.1976 266.327C54.1976 268.405 54.5958 270.52 55.8859 272.178L60.7563 268.385C60.6637 268.263 60.3705 267.742 60.3705 266.327H54.1976ZM55.9291 272.233C57.3612 273.992 59.3828 274.706 61.4816 274.706V268.526C61.1174 268.526 60.9291 268.468 60.855 268.436C60.7933 268.41 60.7594 268.384 60.7131 268.33L55.9291 272.233ZM61.4816 274.706C63.6174 274.706 65.6174 273.928 67.0186 272.141L62.1668 268.323C62.1051 268.402 62.0618 268.428 62.0186 268.447C61.9631 268.472 61.8057 268.526 61.4816 268.526V274.706ZM66.9847 272.184C68.3335 270.528 68.7655 268.414 68.7655 266.327H62.5927C62.5927 267.667 62.2995 268.156 62.2007 268.28L66.9847 272.184ZM68.7655 266.327V258.862H62.5927V266.327H68.7655ZM65.6791 255.772H57.2841V261.952H65.6791V255.772ZM39.8767 267.661C39.8767 269.863 40.2964 272.084 41.6513 273.803C43.1174 275.66 45.2316 276.386 47.4075 276.386V270.207C46.9878 270.207 46.7625 270.14 46.6637 270.098C46.5835 270.064 46.5402 270.031 46.497 269.974C46.3705 269.813 46.0495 269.217 46.0495 267.661H39.8767ZM47.4075 276.386C49.5742 276.386 51.6575 275.633 53.0835 273.762C54.389 272.049 54.7902 269.845 54.7902 267.661H48.6174C48.6174 269.234 48.3026 269.848 48.176 270.014C48.1328 270.069 48.1051 270.09 48.0526 270.113C47.9816 270.144 47.7902 270.207 47.4075 270.207V276.386ZM54.7902 267.661V258.862H48.6174V267.661H54.7902ZM51.7038 255.772H42.9631V261.952H51.7038V255.772ZM39.8767 258.862V267.661H46.0495V258.862H39.8767ZM71.605 292.681H74.6915V289.591H71.605V292.681ZM71.605 300.64V303.73H74.6915V300.64H71.605ZM49.0866 300.64V297.55H39.6482L47.2625 303.132L49.0866 300.64ZM71.605 317.153H74.6915V315.583L73.4291 314.659L71.605 317.153ZM71.605 324.667V327.756H74.6915V324.667H71.605ZM37.0372 324.667H33.9507V327.756H37.0372V324.667ZM37.0372 316.757V313.667H33.9507V316.757H37.0372ZM59.5063 316.757V319.847H68.926L61.3334 314.264L59.5063 316.757ZM37.0372 300.244H33.9507V301.809L35.21 302.735L37.0372 300.244ZM37.0372 292.681V289.591H33.9507V292.681H37.0372ZM68.5186 292.681V300.64H74.6915V292.681H68.5186ZM71.605 297.55H49.0866V303.73H71.605V297.55ZM47.2625 303.132L69.781 319.643L73.4291 314.659L50.9106 298.148L47.2625 303.132ZM68.5186 317.153V324.667H74.6915V317.153H68.5186ZM71.605 321.577H37.0372V327.756H71.605V321.577ZM40.1236 324.667V316.757H33.9507V324.667H40.1236ZM37.0372 319.847H59.5063V313.667H37.0372V319.847ZM61.3334 314.264L38.8643 297.754L35.21 302.735L57.6791 319.247L61.3334 314.264ZM40.1236 300.244V292.681H33.9507V300.244H40.1236ZM37.0372 295.771H71.605V289.591H37.0372V295.771ZM50.9631 369.615L52.4631 372.315L54.0495 371.432V369.615H50.9631ZM50.9631 364.573H54.0495V361.483H50.9631V364.573ZM37.0372 364.573H33.9507V367.662H37.0372V364.573ZM37.0372 356.713V353.623H33.9507V356.713H37.0372ZM50.9631 356.713V359.802H54.0495V356.713H50.9631ZM50.9631 351.571H54.0495V349.755L52.4631 348.871L50.9631 351.571ZM37.0372 343.81H33.9507V345.627L35.5372 346.51L37.0372 343.81ZM37.0372 334.566L38.5742 331.887L33.9507 329.23V334.566H37.0372ZM55.1112 344.947L53.5742 347.626L55.1329 348.522L56.6791 347.607L55.1112 344.947ZM71.605 335.209H74.6915V329.799L70.0372 332.548L71.605 335.209ZM71.605 343.662L73.102 346.365L74.6915 345.482V343.662H71.605ZM57.6297 351.423L56.1328 348.723L54.5433 349.603V351.423H57.6297ZM57.6297 356.713H54.5433V359.802H57.6297V356.713ZM71.605 356.713H74.6915V353.623H71.605V356.713ZM71.605 364.573V367.662H74.6915V364.573H71.605ZM57.6297 364.573V361.483H54.5433V364.573H57.6297ZM57.6297 369.714H54.5433V371.527L56.1267 372.411L57.6297 369.714ZM71.605 377.524H74.6915V375.711L73.1081 374.827L71.605 377.524ZM71.605 385.978L70.0433 388.644L74.6915 391.372V385.978H71.605ZM55.1112 376.289L56.673 373.625L55.1329 372.72L53.5804 373.607L55.1112 376.289ZM37.0372 386.62H33.9507V391.944L38.568 389.305L37.0372 386.62ZM37.0372 377.376L35.5372 374.676L33.9507 375.559V377.376H37.0372ZM54.0495 369.615V364.573H47.8766V369.615H54.0495ZM50.9631 361.483H37.0372V367.662H50.9631V361.483ZM40.1236 364.573L40.1236 356.713H33.9507L33.9507 364.573H40.1236ZM37.0372 359.802H50.9631V353.623H37.0372V359.802ZM54.0495 356.713V351.571H47.8766V356.713H54.0495ZM52.4631 348.871L38.5371 341.11L35.5372 346.51L49.4631 354.272L52.4631 348.871ZM40.1236 343.81V334.566H33.9507V343.81H40.1236ZM35.5001 337.245L53.5742 347.626L56.6483 342.268L38.5742 331.887L35.5001 337.245ZM56.6791 347.607L73.1729 337.869L70.0372 332.548L53.5434 342.287L56.6791 347.607ZM68.5186 335.209V343.662H74.6915V335.209H68.5186ZM70.1081 340.961L56.1328 348.723L59.1267 354.126L73.102 346.365L70.1081 340.961ZM54.5433 351.423V356.713H60.7162V351.423H54.5433ZM57.6297 359.802H71.605V353.623H57.6297V359.802ZM68.5186 356.713V364.573H74.6915V356.713H68.5186ZM71.605 361.483H57.6297V367.662H71.605V361.483ZM54.5433 364.573V369.714H60.7162V364.573H54.5433ZM56.1267 372.411L70.102 380.222L73.1081 374.827L59.1328 367.017L56.1267 372.411ZM68.5186 377.524V385.978H74.6915V377.524H68.5186ZM73.1668 383.314L56.673 373.625L53.5495 378.955L70.0433 388.644L73.1668 383.314ZM53.5804 373.607L35.5063 383.939L38.568 389.305L56.6421 378.973L53.5804 373.607ZM40.1236 386.62V377.376H33.9507V386.62H40.1236ZM38.5371 380.077L52.4631 372.315L49.4631 366.915L35.5372 374.676L38.5371 380.077ZM43.4569 422.195V425.284H46.5433V422.195H43.4569ZM37.0372 422.195H33.9507V425.284H37.0372V422.195ZM37.0372 395.401V392.312H33.9507V395.401H37.0372ZM71.605 395.401H74.6915V392.312H71.605V395.401ZM71.605 421.552V424.642H74.6915V421.552H71.605ZM65.1853 421.552H62.0989V424.642H65.1853V421.552ZM65.1853 403.36H68.2717V400.27H65.1853V403.36ZM57.6791 403.36V400.27H54.5927V403.36H57.6791ZM57.6791 419.426V422.516H60.7656V419.426H57.6791ZM51.4569 419.426H48.3705V422.516H51.4569V419.426ZM51.4569 403.36H54.5433V400.27H51.4569V403.36ZM43.4569 403.36V400.27H40.3705V403.36H43.4569ZM43.4569 419.105H37.0372V425.284H43.4569V419.105ZM40.1236 422.195V395.401H33.9507V422.195H40.1236ZM37.0372 398.491H71.605V392.312H37.0372V398.491ZM68.5186 395.401L68.5186 421.552H74.6915L74.6915 395.401H68.5186ZM71.605 418.462H65.1853V424.642H71.605V418.462ZM68.2717 421.552V403.36H62.0989V421.552H68.2717ZM65.1853 400.27H57.6791V406.45H65.1853V400.27ZM54.5927 403.36V419.426H60.7656V403.36H54.5927ZM57.6791 416.337H51.4569V422.516H57.6791V416.337ZM54.5433 419.426V403.36H48.3705V419.426H54.5433ZM51.4569 400.27H43.4569V406.45H51.4569V400.27ZM40.3705 403.36V422.195H46.5433V403.36H40.3705ZM71.605 465.345V468.434H74.6915V465.345H71.605ZM37.0372 465.345H33.9507V468.434H37.0372V465.345ZM37.0372 457.336V454.247H33.9507V457.336H37.0372ZM51.21 457.336V460.426H54.2964V457.336H51.21ZM51.21 441.616H54.2964V438.527H51.21V441.616ZM37.0372 441.616H33.9507V444.706H37.0372V441.616ZM37.0372 433.608V430.518H33.9507V433.608H37.0372ZM71.605 433.608H74.6915V430.518H71.605V433.608ZM71.605 441.616V444.706H74.6915V441.616H71.605ZM57.9754 441.616V438.527H54.889V441.616H57.9754ZM57.9754 457.336H54.889V460.426H57.9754V457.336ZM71.605 457.336H74.6915V454.247H71.605V457.336ZM71.605 462.255H37.0372V468.434H71.605V462.255ZM40.1236 465.345V457.336H33.9507V465.345H40.1236ZM37.0372 460.426H51.21V454.247H37.0372V460.426ZM54.2964 457.336L54.2964 441.616H48.1236V457.336H54.2964ZM51.21 438.527H37.0372V444.706H51.21V438.527ZM40.1236 441.616V433.608H33.9507V441.616H40.1236ZM37.0372 436.697H71.605V430.518H37.0372V436.697ZM68.5186 433.608V441.616H74.6915V433.608H68.5186ZM71.605 438.527H57.9754V444.706H71.605V438.527ZM54.889 441.616L54.889 457.336H61.0618L61.0618 441.616H54.889ZM57.9754 460.426H71.605V454.247H57.9754V460.426ZM68.5186 457.336V465.345H74.6915V457.336H68.5186ZM71.605 478.958H74.6915V475.868H71.605V478.958ZM71.605 486.917V490.006H74.6915V486.917H71.605ZM49.0866 486.917V483.827H39.6482L47.2625 489.41L49.0866 486.917ZM71.605 503.428H74.6915V501.861L73.4291 500.935L71.605 503.428ZM71.605 510.942V514.032H74.6915V510.942H71.605ZM37.0372 510.942H33.9507V514.032H37.0372V510.942ZM37.0372 503.032V499.943H33.9507V503.032H37.0372ZM59.5063 503.032V506.122H68.926L61.3334 500.542L59.5063 503.032ZM37.0372 486.521H33.9507V488.088L35.21 489.012L37.0372 486.521ZM37.0372 478.958L37.0372 475.868H33.9507L33.9507 478.958H37.0372ZM68.5186 478.958V486.917H74.6915V478.958H68.5186ZM71.605 483.827H49.0866V490.006H71.605V483.827ZM47.2625 489.41L69.781 505.921L73.4291 500.935L50.9106 484.423L47.2625 489.41ZM68.5186 503.428V510.942H74.6915V503.428H68.5186ZM71.605 507.852H37.0372V514.032H71.605V507.852ZM40.1236 510.942V503.032H33.9507V510.942H40.1236ZM37.0372 506.122H59.5063V499.943H37.0372V506.122ZM61.3334 500.542L38.8643 484.031L35.21 489.012L57.6791 505.523L61.3334 500.542ZM40.1236 486.521V478.958H33.9507V486.521H40.1236ZM37.0372 482.047H71.605V475.868H37.0372L37.0372 482.047ZM43.4569 551.296V554.386H46.5433V551.296H43.4569ZM37.0372 551.296H33.9507V554.386H37.0372V551.296ZM37.0372 524.502V521.413H33.9507V524.502H37.0372ZM71.605 524.502H74.6915V521.413H71.605V524.502ZM71.605 550.653V553.743H74.6915V550.653H71.605ZM65.1853 550.653H62.0989V553.743H65.1853V550.653ZM65.1853 532.461H68.2717V529.372H65.1853V532.461ZM57.6791 532.461V529.372H54.5927V532.461H57.6791ZM57.6791 548.528V551.617H60.7656V548.528H57.6791ZM51.4569 548.528H48.3705V551.617H51.4569V548.528ZM51.4569 532.461H54.5433V529.372H51.4569V532.461ZM43.4569 532.461V529.372H40.3705V532.461H43.4569ZM43.4569 548.206H37.0372V554.386H43.4569V548.206ZM40.1236 551.296V524.502H33.9507V551.296H40.1236ZM37.0372 527.592H71.605V521.413H37.0372V527.592ZM68.5186 524.502V550.653H74.6915V524.502H68.5186ZM71.605 547.564H65.1853V553.743H71.605V547.564ZM68.2717 550.653V532.461H62.0989V550.653H68.2717ZM65.1853 529.372H57.6791V535.551H65.1853V529.372ZM54.5927 532.461V548.528H60.7656V532.461H54.5927ZM57.6791 545.438H51.4569V551.617H57.6791V545.438ZM54.5433 548.528V532.461H48.3705V548.528H54.5433ZM51.4569 529.372H43.4569V535.551H51.4569V529.372ZM40.3705 532.461V551.296H46.5433V532.461H40.3705ZM38.7162 588.424L36.0063 586.941L35.9878 586.978L38.7162 588.424ZM45.0865 581.701L43.5187 579.038L43.497 579.05L43.4785 579.063L45.0865 581.701ZM63.5063 581.701L65.0989 579.053L65.0896 579.047L63.5063 581.701ZM69.8767 588.424L67.1544 589.88L67.1606 589.892L69.8767 588.424ZM70.6174 606.171L67.7903 604.929L67.7841 604.945L70.6174 606.171ZM66.0742 612.301L63.8057 614.396L65.7964 616.552L68.0495 614.674L66.0742 612.301ZM61.3334 607.16L59.3118 604.824L56.9044 606.91L59.0649 609.255L61.3334 607.16ZM63.9507 592.725L61.244 594.211L61.2563 594.23L61.2686 594.251L63.9507 592.725ZM60.0495 588.77L61.5742 586.082L61.5557 586.073L61.5341 586.061L60.0495 588.77ZM48.5927 588.77L47.1081 586.061L47.0865 586.073L47.068 586.082L48.5927 588.77ZM44.6421 592.725L41.96 591.196L41.9477 591.217L41.9353 591.236L44.6421 592.725ZM47.3581 607.16L49.6266 609.255L51.7995 606.897L49.3643 604.812L47.3581 607.16ZM42.6174 612.301L40.6606 614.689L42.9106 616.537L44.8859 614.396L42.6174 612.301ZM38.0248 606.171L40.8582 604.945L38.0248 606.171ZM39.531 598.015C39.531 594.947 40.1853 592.252 41.4445 589.867L35.9878 586.978C34.2193 590.331 33.3581 594.029 33.3581 598.015H39.531ZM41.426 589.904C42.7192 587.534 44.4662 585.699 46.6946 584.337L43.4785 579.063C40.3088 580.997 37.8088 583.642 36.0063 586.941L41.426 589.904ZM46.6544 584.361C48.8767 583.048 51.4045 582.369 54.3211 582.369V576.189C50.389 576.189 46.7625 577.122 43.5187 579.038L46.6544 584.361ZM54.3211 582.369C57.2378 582.369 59.744 583.048 61.923 584.352L65.0896 579.047C61.8705 577.122 58.2501 576.189 54.3211 576.189V582.369ZM61.9137 584.346C64.1668 585.705 65.9013 587.534 67.1544 589.88L72.5989 586.966C70.8242 583.645 68.3118 580.991 65.0989 579.053L61.9137 584.346ZM67.1606 589.892C68.4445 592.268 69.1112 594.968 69.1112 598.064H75.2841C75.2841 594.038 74.4044 590.315 72.5927 586.954L67.1606 589.892ZM69.1112 598.064C69.1112 600.696 68.6514 602.967 67.7903 604.929L73.4446 607.41C74.6915 604.562 75.2841 601.429 75.2841 598.064H69.1112ZM67.7841 604.945C66.9168 606.953 65.6884 608.6 64.0989 609.925L68.0495 614.674C70.4106 612.706 72.21 610.265 73.4507 607.398L67.7841 604.945ZM68.3427 610.203L63.602 605.062L59.0649 609.255L63.8057 614.396L68.3427 610.203ZM63.355 609.496C66.7038 606.591 68.4693 602.85 68.4693 598.459H62.2964C62.2964 600.99 61.3612 603.048 59.3118 604.824L63.355 609.496ZM68.4693 598.459C68.4693 595.839 67.8798 593.392 66.6328 591.196L61.2686 594.251C61.9291 595.416 62.2964 596.791 62.2964 598.459H68.4693ZM66.6575 591.236C65.4569 589.051 63.747 587.318 61.5742 586.082L58.5248 591.455C59.71 592.132 60.602 593.037 61.244 594.211L66.6575 591.236ZM61.5341 586.061C59.3489 584.859 56.9199 584.296 54.3211 584.296V590.476C56.0032 590.476 57.3921 590.834 58.565 591.477L61.5341 586.061ZM54.3211 584.296C51.7254 584.296 49.2933 584.859 47.1081 586.061L50.0773 591.477C51.2501 590.834 52.639 590.476 54.3211 590.476V584.296ZM47.068 586.082C44.9044 587.315 43.1884 589.033 41.96 591.196L47.3242 594.251C48.0063 593.053 48.923 592.135 50.1174 591.455L47.068 586.082ZM41.9353 591.236C40.7378 593.426 40.173 595.858 40.173 598.459H46.3458C46.3458 596.773 46.7038 595.385 47.3489 594.211L41.9353 591.236ZM40.173 598.459C40.173 602.862 41.9662 606.607 45.352 609.508L49.3643 604.812C47.2872 603.032 46.3458 600.974 46.3458 598.459H40.173ZM45.0896 605.062L40.3489 610.203L44.8859 614.396L49.6266 609.255L45.0896 605.062ZM44.5742 609.91C42.9538 608.581 41.7193 606.941 40.8582 604.945L35.1915 607.398C36.4353 610.277 38.2625 612.721 40.6606 614.689L44.5742 609.91ZM40.8582 604.945C39.9909 602.939 39.531 600.644 39.531 598.015H33.3581C33.3581 601.379 33.9507 604.524 35.1915 607.398L40.8582 604.945ZM44.4445 645.218L45.6236 648.073L47.531 647.285V645.218H44.4445ZM44.4445 629.152H47.531V627.088L45.6236 626.297L44.4445 629.152ZM37.0372 626.087H33.9507V628.154L35.8581 628.942L37.0372 626.087ZM37.0372 617.881L38.2933 615.06L33.9507 613.123V617.881H37.0372ZM71.605 633.305H74.6915V631.299L72.8612 630.484L71.605 633.305ZM71.605 641.214L72.8643 644.035L74.6915 643.219V641.214H71.605ZM37.0372 656.687H33.9507V661.454L38.2964 659.508L37.0372 656.687ZM37.0372 648.283L35.8581 645.428L33.9507 646.219V648.283H37.0372ZM50.5186 642.697H47.4322V647.322L51.7008 645.552L50.5186 642.697ZM63.7532 637.21L64.9353 640.065L71.818 637.21L64.9353 634.355L63.7532 637.21ZM50.5186 631.723L51.7008 628.868L47.4322 627.101V631.723H50.5186ZM47.531 645.218V629.152H41.3581V645.218H47.531ZM45.6236 626.297L38.2162 623.232L35.8581 628.942L43.2656 632.007L45.6236 626.297ZM40.1236 626.087V617.881H33.9507V626.087H40.1236ZM35.781 620.705L70.3489 636.129L72.8612 630.484L38.2933 615.06L35.781 620.705ZM68.5186 633.305V641.214H74.6915V633.305H68.5186ZM70.3458 638.393L35.7779 653.866L38.2964 659.508L72.8643 644.035L70.3458 638.393ZM40.1236 656.687V648.283H33.9507V656.687H40.1236ZM38.2162 651.138L45.6236 648.073L43.2656 642.363L35.8581 645.428L38.2162 651.138ZM51.7008 645.552L64.9353 640.065L62.5711 634.355L49.3365 639.842L51.7008 645.552ZM64.9353 634.355L51.7008 628.868L49.3365 634.578L62.5711 640.065L64.9353 634.355ZM47.4322 631.723V642.697H53.605V631.723H47.4322ZM71.605 666.219H74.6915L74.6915 663.129H71.605L71.605 666.219ZM71.605 674.178V677.267H74.6915V674.178H71.605ZM49.0866 674.178V671.088H39.6482L47.2625 676.671L49.0866 674.178ZM71.605 690.689H74.6915V689.122L73.4291 688.198L71.605 690.689ZM71.605 698.203V701.292H74.6915V698.203H71.605ZM37.0372 698.203H33.9507V701.292H37.0372V698.203ZM37.0372 690.293V687.204H33.9507V690.293H37.0372ZM59.5063 690.293V693.383H68.926L61.3334 687.803L59.5063 690.293ZM37.0372 673.782H33.9507V675.349L35.21 676.276L37.0372 673.782ZM37.0372 666.219V663.129H33.9507V666.219H37.0372ZM81.3828 672.596H84.4692V669.466L81.3427 669.509L81.3828 672.596ZM81.3828 678.083L81.4662 681.173L84.4692 681.089V678.083H81.3828ZM78.6668 685.201L76.3242 687.213L76.3489 687.244L76.3767 687.275L78.6668 685.201ZM81.3828 686.289H84.4692V683.286L81.4692 683.203L81.3828 686.289ZM81.3828 691.776L81.3427 694.866L84.4692 694.909V691.776H81.3828ZM75.7532 689.354L78.1483 687.408L75.7532 689.354ZM68.5186 666.219V674.178H74.6915V666.219H68.5186ZM71.605 671.088H49.0866V677.267H71.605V671.088ZM47.2625 676.671L69.781 693.182L73.4291 688.198L50.9106 671.687L47.2625 676.671ZM68.5186 690.689V698.203H74.6915V690.689H68.5186ZM71.605 695.113H37.0372V701.292H71.605V695.113ZM40.1236 698.203V690.293H33.9507V698.203H40.1236ZM37.0372 693.383H59.5063V687.204H37.0372V693.383ZM61.3334 687.803L38.8643 671.292L35.21 676.276L57.6791 692.787L61.3334 687.803ZM40.1236 673.782V666.219H33.9507V673.782H40.1236ZM37.0372 669.308H71.605L71.605 663.129H37.0372V669.308ZM76.9137 682.186C76.9137 679.356 77.4909 677.78 78.139 676.958C78.6853 676.263 79.5927 675.71 81.4229 675.685L81.3427 669.509C78.1359 669.549 75.2655 670.628 73.2933 673.13C71.4229 675.503 70.7409 678.692 70.7409 682.186H76.9137ZM78.2964 672.596V678.083H84.4692V672.596H78.2964ZM81.2995 674.996C79.5279 675.046 77.6946 675.602 76.3612 677.119C75.0773 678.58 74.6915 680.443 74.6915 682.186H80.8643C80.8643 681.262 81.0773 681.108 80.997 681.2C80.9538 681.25 80.9168 681.262 80.9446 681.25C80.9908 681.231 81.1452 681.182 81.4662 681.173L81.2995 674.996ZM74.6915 682.186C74.6915 683.919 75.0773 685.758 76.3242 687.213L81.0094 683.193C81.0711 683.264 80.8643 683.091 80.8643 682.186H74.6915ZM76.3767 687.275C77.7131 688.752 79.5124 689.329 81.2964 689.379L81.4692 683.203C81.1637 683.193 81.0125 683.147 80.96 683.125C80.923 683.11 80.9384 683.11 80.9569 683.131L76.3767 687.275ZM78.2964 686.289V691.776H84.4692V686.289H78.2964ZM81.4229 688.69C79.6544 688.665 78.7316 688.127 78.1483 687.408L73.3582 691.304C75.3427 693.747 78.1729 694.826 81.3427 694.866L81.4229 688.69ZM78.1483 687.408C77.5032 686.614 76.9137 685.056 76.9137 682.186H70.7409C70.7409 685.714 71.4353 688.934 73.3582 691.304L78.1483 687.408ZM65.0865 738.211H62.0001V741.3H65.0865V738.211ZM65.0865 727.137H68.1729V724.048H65.0865V727.137ZM37.0372 727.137H33.9507V730.227H37.0372V727.137ZM37.0372 719.228V716.138H33.9507V719.228H37.0372ZM65.0865 719.228V722.318H68.1729V719.228H65.0865ZM65.0865 708.204V705.114H62.0001V708.204H65.0865ZM71.605 708.204H74.6915V705.114H71.605V708.204ZM71.605 738.211V741.3H74.6915V738.211H71.605ZM68.1729 738.211V727.137H62.0001V738.211H68.1729ZM65.0865 724.048H37.0372V730.227H65.0865V724.048ZM40.1236 727.137V719.228H33.9507V727.137H40.1236ZM37.0372 722.318H65.0865V716.138H37.0372V722.318ZM68.1729 719.228V708.204H62.0001V719.228H68.1729ZM65.0865 711.294H71.605V705.114H65.0865V711.294ZM68.5186 708.204V738.211H74.6915V708.204H68.5186ZM71.605 735.121H65.0865V741.3H71.605V735.121ZM38.7655 754.472L36.0495 753.004L36.0433 753.016L38.7655 754.472ZM45.1359 747.699L43.568 745.039L43.5464 745.051L43.5279 745.064L45.1359 747.699ZM63.4569 747.699L65.0495 745.054L65.0402 745.048L63.4569 747.699ZM69.8767 754.472L72.5989 753.016L72.5927 753.004L69.8767 754.472ZM63.4569 780.672L61.8643 778.027L61.8489 778.036L63.4569 780.672ZM45.1359 780.672L43.5279 783.31L43.5433 783.32L45.1359 780.672ZM38.7655 773.899L36.0495 775.37L38.7655 773.899ZM44.6421 769.747L41.9477 771.258L41.96 771.279L41.9723 771.298L44.6421 769.747ZM48.5927 773.603L50.1174 770.918L50.0989 770.905L50.0773 770.896L48.5927 773.603ZM60.0495 773.603L58.565 770.896L58.5433 770.905L58.5248 770.918L60.0495 773.603ZM63.9507 769.747L61.281 768.199L61.2686 768.217L61.2563 768.239L63.9507 769.747ZM63.9507 758.673L61.2563 760.184L61.2686 760.206L61.281 760.225L63.9507 758.673ZM60.0495 754.768L61.5742 752.083L61.5557 752.071L61.5341 752.062L60.0495 754.768ZM48.5927 754.768L47.1081 752.062L47.0865 752.071L47.068 752.083L48.5927 754.768ZM44.6421 758.673L41.9723 757.126L41.96 757.144L41.9477 757.166L44.6421 758.673ZM39.531 764.21C39.531 761.077 40.2007 758.34 41.4878 755.927L36.0433 753.016C34.2347 756.406 33.3581 760.16 33.3581 764.21H39.531ZM41.4816 755.942C42.7779 753.542 44.5248 751.694 46.744 750.338L43.5279 745.064C40.3489 747.004 37.8489 749.67 36.0495 753.004L41.4816 755.942ZM46.7038 750.362C48.9291 749.046 51.4415 748.366 54.3211 748.366V742.187C50.4168 742.187 46.8088 743.123 43.568 745.039L46.7038 750.362ZM54.3211 748.366C57.2008 748.366 59.6915 749.046 61.8736 750.353L65.0402 745.048C61.8242 743.123 58.2254 742.187 54.3211 742.187V748.366ZM61.8643 750.347C64.1143 751.703 65.8705 753.551 67.1606 755.942L72.5927 753.004C70.7872 749.661 68.2656 746.992 65.0495 745.054L61.8643 750.347ZM67.1544 755.927C68.4415 758.34 69.1112 761.077 69.1112 764.21H75.2841C75.2841 760.16 74.4075 756.406 72.5989 753.016L67.1544 755.927ZM69.1112 764.21C69.1112 767.343 68.4415 770.062 67.1606 772.432L72.5927 775.37C74.4075 772.005 75.2841 768.264 75.2841 764.21H69.1112ZM67.1606 772.432C65.8705 774.823 64.1143 776.671 61.8643 778.027L65.0495 783.32C68.2656 781.379 70.7872 778.713 72.5927 775.37L67.1606 772.432ZM61.8489 778.036C59.6699 779.365 57.1884 780.054 54.3211 780.054V786.233C58.2378 786.233 61.8458 785.275 65.0649 783.31L61.8489 778.036ZM54.3211 780.054C51.4538 780.054 48.9507 779.365 46.7285 778.027L43.5433 783.32C46.7872 785.275 50.4045 786.233 54.3211 786.233V780.054ZM46.744 778.036C44.5248 776.68 42.7779 774.832 41.4816 772.432L36.0495 775.37C37.8489 778.704 40.3489 781.37 43.5279 783.31L46.744 778.036ZM41.4816 772.432C40.2007 770.062 39.531 767.343 39.531 764.21H33.3581C33.3581 768.264 34.2347 772.005 36.0495 775.37L41.4816 772.432ZM40.173 764.21C40.173 766.738 40.747 769.11 41.9477 771.258L47.3366 768.239C46.6915 767.09 46.3458 765.77 46.3458 764.21H40.173ZM41.9723 771.298C43.21 773.436 44.9384 775.12 47.1081 776.312L50.0773 770.896C48.889 770.241 47.9816 769.354 47.3118 768.199L41.9723 771.298ZM47.068 776.291C49.2594 777.539 51.7069 778.126 54.3211 778.126V771.947C52.6575 771.947 51.2841 771.582 50.1174 770.918L47.068 776.291ZM54.3211 778.126C56.9353 778.126 59.3828 777.539 61.5742 776.291L58.5248 770.918C57.3582 771.582 55.9847 771.947 54.3211 771.947V778.126ZM61.5341 776.312C63.7131 775.117 65.4353 773.417 66.6452 771.258L61.2563 768.239C60.6236 769.373 59.744 770.247 58.565 770.896L61.5341 776.312ZM66.6205 771.298C67.8674 769.144 68.4693 766.759 68.4693 764.21H62.2964C62.2964 765.752 61.9415 767.056 61.281 768.199L66.6205 771.298ZM68.4693 764.21C68.4693 761.664 67.8674 759.276 66.6205 757.126L61.281 760.225C61.9415 761.368 62.2964 762.672 62.2964 764.21H68.4693ZM66.6452 757.166C65.4415 755.015 63.7316 753.31 61.5742 752.083L58.5248 757.456C59.7254 758.139 60.6174 759.041 61.2563 760.184L66.6452 757.166ZM61.5341 752.062C59.3489 750.86 56.9199 750.294 54.3211 750.294V756.474C56.0032 756.474 57.3921 756.832 58.565 757.478L61.5341 752.062ZM54.3211 750.294C51.7254 750.294 49.2933 750.86 47.1081 752.062L50.0773 757.478C51.2501 756.832 52.639 756.474 54.3211 756.474V750.294ZM47.068 752.083C44.9199 753.307 43.2069 754.997 41.9723 757.126L47.3118 760.225C47.9878 759.057 48.9075 758.145 50.1174 757.456L47.068 752.083ZM41.9477 757.166C40.747 759.31 40.173 761.683 40.173 764.21H46.3458C46.3458 762.653 46.6915 761.334 47.3366 760.184L41.9477 757.166ZM55.0618 818.233L57.8335 816.876L54.355 809.758L52.102 817.355L55.0618 818.233ZM52.0001 823.077L50.0865 820.655L52.0001 823.077ZM39.6051 821.248L42.0958 819.422L42.0834 819.407L39.6051 821.248ZM37.0372 794.257V791.167H33.9507V794.257H37.0372ZM71.605 794.257H74.6915V791.167H71.605V794.257ZM69.2841 819.765L71.8242 821.523L69.2841 819.765ZM58.1236 821.841L56.4106 824.412L56.4415 824.434L58.1236 821.841ZM57.2841 802.216V799.126H54.1976V802.216H57.2841ZM58.3211 813.635L55.8859 815.532L55.9075 815.56L55.9291 815.588L58.3211 813.635ZM64.5927 813.586L62.2007 811.633L62.1822 811.655L62.1668 811.677L64.5927 813.586ZM65.6791 802.216H68.7655V799.126H65.6791V802.216ZM51.7038 802.216H54.7902V799.126H51.7038V802.216ZM42.9631 802.216V799.126H39.8767V802.216H42.9631ZM52.102 817.355C51.6174 818.987 50.9013 820.006 50.0865 820.655L53.9137 825.503C55.9291 823.905 57.2532 821.696 58.0217 819.113L52.102 817.355ZM50.0865 820.655C49.2933 821.279 48.2532 821.668 46.7655 821.668L46.7655 827.848C49.426 827.848 51.8736 827.116 53.9137 825.503L50.0865 820.655ZM46.7655 821.668C44.6236 821.668 43.1884 820.918 42.0958 819.422L37.1143 823.074C39.4445 826.26 42.784 827.848 46.7655 827.848L46.7655 821.668ZM42.0834 819.407C40.9199 817.84 40.1236 815.282 40.1236 811.312H33.9507C33.9507 815.977 34.8674 820.043 37.1267 823.09L42.0834 819.407ZM40.1236 811.312V794.257H33.9507V811.312H40.1236ZM37.0372 797.347H71.605V791.167H37.0372V797.347ZM68.5186 794.257V810.373H74.6915V794.257H68.5186ZM68.5186 810.373C68.5186 814.049 67.8026 816.475 66.7439 818.01L71.8242 821.523C73.8581 818.573 74.6915 814.738 74.6915 810.373H68.5186ZM66.7439 818.01C65.8088 819.364 64.5804 820.037 62.6668 820.037V826.216C66.4816 826.216 69.6637 824.65 71.8242 821.523L66.7439 818.01ZM62.6668 820.037C61.497 820.037 60.5773 819.753 59.8057 819.252L56.4415 824.434C58.3026 825.645 60.4137 826.216 62.6668 826.216V820.037ZM59.8365 819.271C59.0587 818.752 58.3798 817.992 57.8335 816.876L52.2902 819.592C53.2594 821.573 54.6205 823.219 56.4106 824.412L59.8365 819.271ZM54.1976 802.216V809.681H60.3705V802.216H54.1976ZM54.1976 809.681C54.1976 811.76 54.5958 813.873 55.8859 815.532L60.7563 811.738C60.6637 811.618 60.3705 811.096 60.3705 809.681H54.1976ZM55.9291 815.588C57.3612 817.346 59.3828 818.06 61.4816 818.06V811.88C61.1174 811.88 60.9291 811.822 60.855 811.791C60.7933 811.763 60.7594 811.738 60.7131 811.683L55.9291 815.588ZM61.4816 818.06C63.6174 818.06 65.6174 817.281 67.0186 815.495L62.1668 811.677C62.1051 811.757 62.0618 811.782 62.0186 811.8C61.9631 811.825 61.8057 811.88 61.4816 811.88V818.06ZM66.9847 815.539C68.3335 813.883 68.7655 811.769 68.7655 809.681H62.5927C62.5927 811.022 62.2995 811.51 62.2007 811.633L66.9847 815.539ZM68.7655 809.681V802.216H62.5927V809.681H68.7655ZM65.6791 799.126H57.2841V805.306H65.6791V799.126ZM39.8767 811.015C39.8767 813.218 40.2964 815.44 41.6513 817.158C43.1174 819.014 45.2316 819.741 47.4075 819.741V813.561C46.9878 813.561 46.7625 813.493 46.6637 813.453C46.5835 813.419 46.5402 813.385 46.497 813.326C46.3705 813.169 46.0495 812.573 46.0495 811.015H39.8767ZM47.4075 819.741C49.5742 819.741 51.6575 818.987 53.0835 817.117C54.389 815.403 54.7902 813.2 54.7902 811.015H48.6174C48.6174 812.588 48.3026 813.203 48.176 813.367C48.1328 813.422 48.1051 813.444 48.0526 813.469C47.9816 813.499 47.7902 813.561 47.4075 813.561V819.741ZM54.7902 811.015V802.216H48.6174V811.015H54.7902ZM51.7038 799.126H42.9631V805.306H51.7038V799.126ZM39.8767 802.216V811.015H46.0495V802.216H39.8767Z" fill="white" fill-opacity="0.05"/>
</g>
<defs>
<clipPath id="clip0">
<rect width="896" height="500" fill="white" transform="translate(500) rotate(90)"/>
</clipPath>
</defs>
</svg>
