<svg width="113" height="93" viewBox="0 0 113 93" fill="none" xmlns="http://www.w3.org/2000/svg">
<path d="M11.0085 91.922L10.6309 81.7968C10.5592 79.8761 9.94652 78.0144 8.86309 76.4267L2.29629 66.8032C-0.69424 62.4207 -0.769721 56.6735 2.10472 52.214L13.1366 35.1108L20.8179 60.1099L17.8481 91.8084L11.6806 92.5007C11.331 92.54 11.0218 92.2738 11.0085 91.922Z" fill="#F1D0A5"/>
<path d="M101.991 91.922L102.369 81.7968C102.44 79.876 103.053 78.0144 104.136 76.4267L110.703 66.8031C113.694 62.4206 113.769 56.6735 110.895 52.214L100.163 35.5706L92.1816 60.1099L95.1512 91.8084L101.319 92.5007C101.669 92.54 101.978 92.2738 101.991 91.922Z" fill="#F1D0A5"/>
<path d="M110.895 52.214L100.163 35.5708L98.6845 41.0747L105.865 52.214C108.739 56.6736 108.664 62.4209 105.673 66.8034L99.1063 76.4269C98.0229 78.0147 97.41 79.8761 97.3385 81.7969L96.9575 92.0112L101.319 92.501C101.669 92.5402 101.978 92.2739 101.991 91.9223L102.369 81.7971C102.441 79.8763 103.053 78.0147 104.137 76.4269L110.704 66.8034C113.694 62.4207 113.77 56.6736 110.895 52.214Z" fill="#F1B986"/>
<path d="M100.338 57.2141C100.338 60.0822 98.0131 62.407 95.1451 62.407H17.855C14.987 62.407 12.6621 60.0822 12.6621 57.2141V5.68853C12.6621 2.82049 14.987 0.495605 17.855 0.495605H95.1451C98.0131 0.495605 100.338 2.82049 100.338 5.68853V57.2141Z" fill="#5AAAE7"/>
<path d="M95.1448 0.495361H91.6187C94.4867 0.495361 96.8116 2.82047 96.8116 5.68828V57.2138C96.8116 60.0819 94.4867 62.4068 91.6187 62.4068H95.1448C98.0129 62.4068 100.338 60.0819 100.338 57.2138V5.6885C100.338 2.82047 98.0129 0.495361 95.1448 0.495361Z" fill="#2B4D66"/>
<path d="M92.8874 7.66333H22.0594C21.9038 7.66333 21.7769 7.7973 21.7769 7.96194V54.9404C21.7769 55.105 21.9035 55.239 22.0594 55.239H92.8874C93.0432 55.239 93.1699 55.105 93.1699 54.9404V7.96194C93.1699 7.7973 93.0432 7.66333 92.8874 7.66333Z" fill="white"/>
<path d="M92.8872 7.66333H89.1147C89.2706 7.66333 89.3975 7.7973 89.3975 7.96194V54.9404C89.3975 55.105 89.2708 55.239 89.1147 55.239H92.8872C93.043 55.239 93.1699 55.105 93.1699 54.9404V7.96194C93.1697 7.7973 93.043 7.66333 92.8872 7.66333Z" fill="#B1E4F9"/>
<path d="M17.2637 34.3878C16.3218 34.3878 15.5586 33.6244 15.5586 32.6826V30.2198C15.5586 29.2778 16.322 28.5146 17.2637 28.5146C18.2057 28.5146 18.9689 29.2781 18.9689 30.2198V32.6826C18.9689 33.6244 18.2057 34.3878 17.2637 34.3878Z" fill="#2B4D66"/>
<path d="M25.7331 90.4255L25.9045 83.0532C25.9339 81.7929 26.1603 80.5453 26.5759 79.3553C27.7432 76.0125 27.0822 72.3029 24.8319 69.5693C24.3583 68.9939 24.2841 68.1875 24.6452 67.5353L34.2085 50.2569C34.9841 48.8556 34.7276 47.109 33.5821 45.9896C32.148 44.5883 29.8399 44.6484 28.4806 46.1225L12.5728 63.3735L13.6193 75.3959L17.8482 91.8085L25.1932 91.0131C25.4951 90.9804 25.726 90.729 25.7331 90.4255Z" fill="#F1D0A5"/>
<path d="M34.2082 50.2569C34.9837 48.8557 34.7273 47.109 33.5818 45.9896C32.2896 44.727 30.2902 44.6548 28.9124 45.7303C29.015 45.8106 29.115 45.8965 29.2103 45.9896C30.3558 47.1088 30.6122 48.8557 29.8367 50.2569L20.2734 67.5353C19.9126 68.1875 19.9865 68.994 20.4603 69.5693C22.7106 72.3032 23.3716 76.0125 22.2043 79.3555C21.7887 80.5456 21.5623 81.7934 21.533 83.0534L21.408 88.418C21.3743 89.8705 20.2694 91.0729 18.8251 91.2294L18.2023 91.2969C17.9529 91.3238 17.7856 91.5657 17.8481 91.8087L25.1931 91.0133C25.4948 90.9806 25.7257 90.7293 25.7327 90.4258L25.8991 83.2677C25.93 81.9406 26.1333 80.6175 26.5723 79.3648C27.7442 76.0196 27.0839 72.3056 24.8316 69.5693C24.358 68.994 24.2838 68.1875 24.6446 67.5353L34.2082 50.2569Z" fill="#F1B986"/>
<path d="M87.2666 90.4255L87.0952 83.0532C87.0658 81.7929 86.8394 80.5453 86.4238 79.3553C85.2565 76.0125 85.9175 72.3029 88.1678 69.5693C88.6414 68.9939 88.7156 68.1875 88.3545 67.5353L78.7912 50.2569C78.0157 48.8556 78.2721 47.109 79.4176 45.9896C80.8517 44.5883 83.1598 44.6484 84.5191 46.1225L100.427 63.3735L99.3804 75.3959L95.1515 91.8085L87.8065 91.0131C87.5046 90.9804 87.2737 90.729 87.2666 90.4255Z" fill="#F1D0A5"/>
<path d="M51.026 38.6312H44.8287C43.8867 38.6312 43.1235 37.8678 43.1235 36.9261C43.1235 35.9844 43.8869 35.2209 44.8287 35.2209H51.026C51.968 35.2209 52.7312 35.9844 52.7312 36.9261C52.7312 37.8678 51.9678 38.6312 51.026 38.6312Z" fill="#DD3E33"/>
<path d="M51.026 44.7545H44.8287C43.8867 44.7545 43.1235 43.9911 43.1235 43.0494C43.1235 42.1077 43.8869 41.3442 44.8287 41.3442H51.026C51.968 41.3442 52.7312 42.1077 52.7312 43.0494C52.7312 43.9911 51.9678 44.7545 51.026 44.7545Z" fill="#DD3E33"/>
<path d="M52.6347 21.4409C52.6347 16.1882 48.3765 11.9297 43.1235 11.9297C37.8706 11.9297 33.6123 16.1879 33.6123 21.4409C33.6123 25.2255 35.8233 28.4935 39.0237 30.0249V47.1674C39.0237 47.2784 39.0694 47.3848 39.1497 47.4611L42.8441 50.9725C43.0006 51.1213 43.2462 51.1213 43.4027 50.9725L47.097 47.4611C47.1776 47.3846 47.2231 47.2784 47.2231 47.1674V30.0249C50.4237 28.4935 52.6347 25.2255 52.6347 21.4409Z" fill="#F36C62"/>
<path d="M52.6327 21.2203C52.5247 16.456 48.824 12.4478 44.0817 11.9775C42.8983 11.8601 41.7555 11.9638 40.6855 12.2468C44.7566 13.3238 47.7582 17.0314 47.7582 21.441C47.7582 24.5499 46.2665 27.31 43.9597 29.0454C42.9614 29.7964 42.3468 30.9498 42.3468 32.199V45.0494C42.3468 46.5129 41.7462 47.9124 40.6855 48.9206L42.8445 50.9729C43.0009 51.1216 43.2466 51.1216 43.4031 50.9729L47.0974 47.4615C47.178 47.3849 47.2234 47.2787 47.2234 47.1677V30.0253C50.4863 28.4638 52.7205 25.0983 52.6327 21.2203Z" fill="#DD3E33"/>
<path d="M43.1236 24.6117C42.1816 24.6117 41.4185 23.8483 41.4185 22.9066V19.9757C41.4185 19.0337 42.1819 18.2705 43.1236 18.2705C44.0656 18.2705 44.8288 19.0339 44.8288 19.9757V22.9066C44.8288 23.8483 44.0656 24.6117 43.1236 24.6117Z" fill="#F6F1F1"/>
<path d="M82.5752 11.9297H60.542C59.595 11.9297 58.8271 12.6975 58.8271 13.6446V28.5049C58.8271 29.452 59.595 30.2198 60.542 30.2198H61.8287C62.145 30.2198 62.4374 30.3886 62.5954 30.6625L65.4178 35.5513C65.6628 35.9757 66.2754 35.9757 66.5206 35.5513L69.3432 30.6625C69.5014 30.3886 69.7937 30.2198 70.1099 30.2198H82.575C83.522 30.2198 84.2899 29.452 84.2899 28.5049V13.6446C84.2899 12.6975 83.5223 11.9297 82.5752 11.9297Z" fill="#DD3E33"/>
<path d="M78.3559 22.507H65.5352C64.5933 22.507 63.8301 21.7436 63.8301 20.8018C63.8301 19.8601 64.5935 19.0967 65.5352 19.0967H78.3559C79.2978 19.0967 80.061 19.8601 80.061 20.8018C80.061 21.7436 79.2976 22.507 78.3559 22.507Z" fill="#F36C62"/>
</svg>
