<svg width="98" height="100" viewBox="0 0 98 100" fill="none" xmlns="http://www.w3.org/2000/svg">
<path d="M49 82.7586V90.5172C49 95.7586 38.1896 100 24.8621 100C11.5345 100 0.724121 95.7586 0.724121 90.5172V78.4482L49 82.7586Z" fill="#DD3E33"/>
<path d="M49 82.7586V90.5172C49 95.7586 59.8103 100 73.1379 100C86.4655 100 97.2759 95.7586 97.2759 90.5172V78.4482L49 82.7586Z" fill="#DD3E33"/>
<path d="M46.431 82.7067C45.5139 83.4013 44.5256 83.9966 43.4827 84.4826C37.5862 86.9248 31.2421 88.0996 24.8621 87.9309C18.482 88.0996 12.1379 86.9248 6.24136 84.4826C2.79309 82.8446 0.724121 80.7412 0.724121 78.4481C0.724121 73.2067 11.5345 68.9653 24.8621 68.9653L46.431 82.7067Z" fill="#F36C62"/>
<path d="M51.5688 82.7067C52.486 83.4013 53.4743 83.9966 54.5171 84.4826C60.4136 86.9248 66.7578 88.0996 73.1378 87.9309C79.5178 88.0996 85.862 86.9248 91.7585 84.4826C95.2068 82.8446 97.2757 80.7412 97.2757 78.4481C97.2757 73.2067 86.4654 68.9653 73.1378 68.9653L51.5688 82.7067Z" fill="#F36C62"/>
<path d="M73.1382 61.2068V73.2757C73.1382 78.5171 62.3278 82.7585 49.0002 82.7585C35.6726 82.7585 24.8623 78.5171 24.8623 73.2757V61.2068H73.1382Z" fill="#DD3E33"/>
<path d="M66.2417 20.6895H61.0693V39.6551C61.0693 41.5595 59.5255 43.1033 57.621 43.1033H40.3797C38.4752 43.1033 36.9314 41.5595 36.9314 39.6551V20.6895H31.759C31.0617 20.6894 30.4332 20.2693 30.1664 19.6251C29.8996 18.981 30.0471 18.2395 30.54 17.7464L47.7814 0.505048C48.4547 -0.168024 49.546 -0.168024 50.2193 0.505048L67.4607 17.7464C67.9536 18.2395 68.1011 18.981 67.8343 19.6251C67.5675 20.2693 66.939 20.6894 66.2417 20.6895Z" fill="#5AAAE7"/>
<path d="M24.8618 50C23.9096 50 23.1377 49.2281 23.1377 48.2759V25.8621C23.1377 24.9099 23.9096 24.1379 24.8618 24.1379C25.814 24.1379 26.586 24.9099 26.586 25.8621V48.2759C26.586 49.2281 25.814 50 24.8618 50Z" fill="#67B9CC"/>
<path d="M14.5171 60.3447C13.5649 60.3447 12.793 59.5728 12.793 58.6206V36.2068C12.793 35.2546 13.5649 34.4827 14.5171 34.4827C15.4693 34.4827 16.2412 35.2546 16.2412 36.2068V58.6206C16.2412 59.5728 15.4693 60.3447 14.5171 60.3447Z" fill="#67B9CC"/>
<path d="M73.1382 50C72.186 50 71.4141 49.2281 71.4141 48.2759V25.8621C71.4141 24.9099 72.186 24.1379 73.1382 24.1379C74.0904 24.1379 74.8623 24.9099 74.8623 25.8621V48.2759C74.8623 49.2281 74.0904 50 73.1382 50Z" fill="#67B9CC"/>
<path d="M83.4824 60.3447C82.5302 60.3447 81.7583 59.5728 81.7583 58.6206V36.2068C81.7583 35.2546 82.5302 34.4827 83.4824 34.4827C84.4346 34.4827 85.2066 35.2546 85.2066 36.2068V58.6206C85.2066 59.5728 84.4346 60.3447 83.4824 60.3447Z" fill="#67B9CC"/>
<path d="M39.2313 52.5759C42.4562 52.0056 45.7252 51.7206 49.0002 51.7242C62.3278 51.7242 73.1382 55.9655 73.1382 61.2069C73.1382 63.5 71.0692 65.6035 67.6209 67.2414C61.7244 69.6836 55.3802 70.8584 49.0002 70.6897C42.6202 70.8584 36.276 69.6836 30.3795 67.2414C26.9313 65.6035 24.8623 63.5 24.8623 61.2069C24.8623 58.2517 28.0071 56.3 30.3451 55.1914C32.2975 54.2929 34.3408 53.6067 36.4399 53.1448C37.3675 52.931 38.2979 52.7414 39.2313 52.5759Z" fill="#F36C62"/>
</svg>
